<?xml version="1.0" encoding="utf-8"?>
<!-- Generator: Adobe Illustrator 24.3.0, SVG Export Plug-In . SVG Version: 6.00 Build 0)  -->
<svg version="1.1" id="Layer_1" xmlns="http://www.w3.org/2000/svg" xmlns:xlink="http://www.w3.org/1999/xlink" x="0px" y="0px"
	 viewBox="0 0 1200 652.62" style="enable-background:new 0 0 1200 652.62;" xml:space="preserve">
<style type="text/css">
	.st0{fill:#ECF3FB;}
	.st1{fill:#D6E4F5;}
	.st2{fill:#B9D3EE;}
	.st3{fill:#D3E1F4;}
	.st4{fill:#C6DBF1;}
	.st5{fill:#FAB17E;}
	.st6{fill:#1C478A;}
	.st7{fill:#183660;}
	.st8{fill:#B6473D;}
	.st9{fill:#EE985E;}
	.st10{fill:#FFFFFF;}
	.st11{fill:#EC7E2A;}
	.st12{fill:#F89748;}
	.st13{fill:#F9DDBF;}
	.st14{fill:#EC893F;}
	.st15{fill:#99BFE5;}
	.st16{fill:#7CAADB;}
	.st17{fill:#2E3652;}
	.st18{fill:#B2C1E3;}
	.st19{fill:#A1302F;}
	.st20{fill:#BE4040;}
	.st21{fill:#A1AFD9;}
	.st22{fill:#243962;}
	.st23{fill:#2B488C;}
	.st24{fill:#E3915A;}
	.st25{fill:#2B4F97;}
	.st26{fill:#DEE9F7;}
	.st27{fill:#EE9960;}
	.st28{fill:#2E3B65;}
</style>
<g>
	<g>
		<path class="st0" d="M150.71,638.24c0,0-160.61-170.69-47.99-329.91c42.02-59.41,149.31-92.78,247.94-65.71
			c58.25,15.99,146.6,13.63,232.93-127.29C701.31-76.85,1190,10.53,1094.61,347.24c-40.18,141.83,109.58,148.28,35.4,291.31
			L150.71,638.24z"/>
		<g>
			<g>
				<path class="st1" d="M1020.24,296.3L670.39,588.98L486.32,432.18c-34.45,30.34-87.66,77.16-141.19,124.15
					c-36.58,32.11-66.19,58.06-90.2,79.06L87.75,635.2c46.36-39.47,233.03-203.51,358.79-314.37l38.45-33.9l186.07,158.51
					l273.11-228.48L1020.24,296.3z"/>
			</g>
			<polygon class="st1" points="899.9,180.97 1066.52,348.09 1113.58,157.17 			"/>
		</g>
		<g>
			<g>
				<g>
					<path class="st2" d="M353.69,533.12c-0.62-15.3-1.96-28.62-3.57-37.9c-2.56-14.8-4.86-23.31-4.89-23.4
						c-0.34-1.3-5.21-6.57-16.04-6.4c-10.83,0.16-9.8,7.07-9.8,7.07l0,0c0,0.23,0.03,0.45,0.08,0.61c0.1,0.36,10.04,36.4,9.61,82.93
						c-0.01,0.65-0.08,1.78-0.03,2.53c0,0,25.09,0.65,25.1,0C355.02,554.49,354.6,543.22,353.69,533.12z"/>
					<path class="st3" d="M356.84,555.79c-0.01,0.65-0.35,1.17-0.77,1.17h-0.01c-0.42-0.01-0.75-0.53-0.75-1.17h-21.5
						c-0.01,0.65-0.35,1.17-0.77,1.17h-0.01c-0.42-0.01-0.76-0.55-0.76-1.2c0.12-13.32-0.63-25.76-1.78-36.74
						c-2.86-27.38-8.14-45.67-8.22-45.93c-0.05-0.16-0.08-0.38-0.08-0.61c0,0-1.03-6.91,9.8-7.07c10.83-0.16,15.7,5.1,16.04,6.41
						c0.02,0.07,1.32,4.89,3.06,13.56c0.57,2.87,1.19,6.16,1.83,9.84c1.6,9.28,2.95,22.6,3.57,37.9
						C357.4,543.22,357.72,551.72,356.84,555.79z"/>
					<path class="st4" d="M330.68,556.96h84.31c0,0-1.96-7.95-50.79-6.76C329.65,551.03,330.68,556.96,330.68,556.96z"/>
					<g>
						<path class="st2" d="M323.82,639.94c9.78-49.49,7.26-79.85,7.25-80.23c-0.02-0.76,1.38-1.45,2.13-1.48
							c0.76-0.01,4.14-0.23,4.53,0.43c0.51,0.85,2.48,38.27-12.09,81.29H323.82z"/>
					</g>
					<g>
						<path class="st2" d="M402.54,639.94c-9.78-49.49-7.26-79.85-7.25-80.23c0.02-0.76-1.38-1.45-2.13-1.48
							c-0.76-0.01-4.14-0.23-4.53,0.43c-0.51,0.85-2.48,38.27,12.09,81.29H402.54z"/>
					</g>
					<g>
						<path class="st2" d="M418.14,639.94c-9.78-49.49-7.26-79.85-7.25-80.23c0.02-0.76-1.38-1.45-2.13-1.48
							c-0.76-0.01-4.14-0.23-4.53,0.43c-0.51,0.85-2.48,38.27,12.09,81.29H418.14z"/>
					</g>
					<g>
						<path class="st2" d="M339.53,639.94c9.78-49.49,7.26-79.85,7.25-80.23c-0.02-0.76,1.38-1.45,2.13-1.48
							c0.76-0.01,4.14-0.23,4.53,0.43c0.51,0.85,2.48,38.27-12.09,81.29H339.53z"/>
					</g>
					<path class="st2" d="M414.47,559.49H331.3c-1.26,0-2.29-1.03-2.29-2.29l0,0c0-1.26,1.03-2.29,2.29-2.29h83.17
						c1.26,0,2.29,1.03,2.29,2.29v0C416.77,558.46,415.74,559.49,414.47,559.49z"/>
					<g>
						<path class="st5" d="M412.08,483.35l28.02-6.07l1.65,4.02c0,0-30.92,18.4-33.82,17.5
							C405.04,497.91,412.08,483.35,412.08,483.35z"/>
						<path class="st5" d="M386.6,610.1c-0.7,0.8-0.79,1.7-0.44,2.66c0,0,0,0.01,0.01,0.01c0.64,1.78,2.76,3.76,5.23,5.74
							c0.31,0.25,0.6,0.49,0.84,0.7c0.06,0.06,0.13,0.11,0.19,0.17c0.05,0.04,0.1,0.09,0.15,0.13c2.3,2.12,1.43,2.6,5.56,6.9
							c4.71,4.9,7.95,4.99,8.87,4.54c0.78-0.38-0.81-2.98-2.56-5.9c-0.09-0.14-0.17-0.28-0.26-0.43c-0.23-0.39-0.47-0.78-0.7-1.17
							c-2.06-3.52-1.53-5.16-1.04-10.4c0.4-4.25,6.61-23.75,6.61-23.75l-9.02-1.55c0,0-2.72,15.53-5.71,17.92
							c-1.6,1.27-3.39,1.29-4.93,2.24c-0.11,0.07-0.22,0.13-0.32,0.2C388.19,608.7,387.3,609.29,386.6,610.1z"/>
						<path class="st6" d="M386.6,610.1c-0.7,0.8-0.79,1.7-0.44,2.66c0,0,0,0.01,0.01,0.01c0.79,1.77,2.86,3.75,5.24,5.72
							c0.31,0.26,0.59,0.5,0.83,0.72c0.06,0.06,0.13,0.11,0.19,0.17c0.05,0.04,0.1,0.09,0.15,0.13c2.3,2.12,1.43,2.6,5.56,6.9
							c4.71,4.9,7.95,4.99,8.87,4.54c0.78-0.38-0.81-2.98-2.56-5.9c-0.92-0.34-5.18-2.07-8.39-6.19c-2.84-3.62-4.73-8.27-6.66-10.96
							c-0.11,0.07-0.22,0.13-0.32,0.2C388.19,608.7,387.3,609.29,386.6,610.1z"/>
						<path class="st5" d="M459.37,604.46c0.56,2.79,4.53,2.32,8.96,1.24c4.44-1.08,3.38,0.2,9.7-0.49c6.31-0.7,8.23-3.05,8.42-3.99
							c0.17-0.83-2.95-1.13-6.29-1.51c-0.42-0.05-0.84-0.1-1.27-0.15c-3.78-0.47-6.55-2.91-9.98-4.91c-3.25-1.9-8.1-9.62-8.1-9.62
							l-8.66,0.69c0,0,4.54,6.9,6.3,9.9c1.03,1.76,0.98,4.1,0.85,5.9C459.24,602.48,459.17,603.48,459.37,604.46z"/>
						<path class="st6" d="M468.33,605.7c4.44-1.08,3.38,0.2,9.7-0.49c6.31-0.7,8.23-3.05,8.42-3.99c0.17-0.83-2.95-1.13-6.29-1.51
							l-0.03,0.06c0,0-3.79,2.68-9.04,2.81c-4.28,0.1-8.82-1.12-11.78-1.08c-0.07,0.98-0.13,1.98,0.07,2.96
							C459.93,607.25,463.9,606.79,468.33,605.7z"/>
						<path class="st5" d="M440.1,477.28c0,0,2.06-5.05,4.33-5.26c2.27-0.21,9.49-1.34,10.01-0.31c0.52,1.03,0,4.74-1.55,6.09
							c-1.55,1.34-11.14,3.51-11.14,3.51L440.1,477.28z"/>
						<path class="st7" d="M426.19,549.1l-18.66,50.22c0,0-2.87,0.28-5.62-0.51c-2.53-0.73-5.43-2.64-5.43-2.64
							s4.63-48.22,13.12-58.25C418.09,527.88,426.19,549.1,426.19,549.1z"/>
						<path class="st6" d="M352.38,528.78c0,0,53.62-18.13,65.58-14.27c11.96,3.86,47.87,75.3,47.87,75.3s-0.81,1.08-3.02,1.91
							c-2.06,0.77-7.04,0.72-7.04,0.72s-32.41-27.78-36.26-35.88c-3.86-8.1-5.4-15.82-9.26-15.05c-3.86,0.77-49.77,18.9-60.18,8.1
							c-10.42-10.8-7.69-24.84-7.69-24.84L352.38,528.78z"/>
						<path class="st8" d="M382.95,400.92c-2.32-1.32-5.1-1.46-7.04-1.35c0.5-0.52,1.48-0.7,1.48-0.7c-1.2-0.18-3.89,1.02-3.89,1.02
							c-16.76-6.46-19.39,18.22-19.04,23.95c0.35,5.73,0.39,12.33-7.97,17.47c-16.46,10.12-2.57,27.78-2.57,27.78
							c0.13,0.08,7.66,12.85,7.66,12.85c-0.42-4.63,20.95-29.08,32.1-36.4c2.71-4,3.68-11.06,3.75-11.61
							c-0.47,5.6-1.43,8.74-2.28,10.51C394.59,435.74,389.09,404.42,382.95,400.92z"/>
						<path class="st5" d="M383.01,445.9c0.06,0.03-5.38,2.85-9.48,1.73c-3.85-1.05-6.36-6.04-6.31-6.05
							c1.63-0.32,2.1-2.56,2.07-12.19l0.74,0.14l12.39,2.45c0,0-0.28,3.9-0.29,7.57C382.12,442.65,382.31,445.57,383.01,445.9z"/>
						<path class="st9" d="M382.42,431.99c0,0-0.28,3.9-0.29,7.57c-6.93-0.2-10.6-6.52-12.1-10.03L382.42,431.99z"/>
						<path class="st8" d="M368.75,428.18c0,0-3.63-5.74-4.51-10.65c-0.62-3.5,1.16-16.5,14.22-14.63c0,0,3.79,0.37,7.36,2.78
							c2.83,1.91,6.93,6.05,2.35,17.38l-1.19,3.83L368.75,428.18z"/>
						<path class="st5" d="M384.74,435.47c0,0-16.4,0.27-16.42-9.95c-0.01-10.22-2.14-17.07,8.34-17.67
							c10.47-0.6,12.51,3.29,13.35,6.7C390.84,417.96,389,435.13,384.74,435.47z"/>
						<path class="st8" d="M384.13,407.6c0,0-4.49,11.99-11.39,13.76c-6.89,1.77-9.88-0.07-9.88-0.07s5.29-4.2,6.38-11.53
							C369.24,409.75,380.74,401.89,384.13,407.6z"/>
						<path class="st8" d="M383.02,408.57c0,0,3.35,2.68,4.17,5.28c0.82,2.6,1.19,7.96,2.75,7.78c0,0,3.38-8.15-0.42-12.76
							C385.48,403.98,383.02,408.57,383.02,408.57z"/>
						<path class="st6" d="M346.48,490.03c-1.62-6.78,3.89-19.95,9.63-30.85c5.21-9.88,10.62-17.89,11.11-17.61
							c13.75,8.16,14.99,1.38,14.99,1.38l0,0c0.01,0,12.49,1.66,16.03,7.74c4.39,7.55,9.13,28.66,13.83,32.65
							c-0.72,2.21-0.41,3.39,0.35,6.13c0.16,0.59,0.35,1.15,0.54,1.68c0.71,1.93,1.6,3.49,2.36,4.85
							c-2.39,1.45-7.01,4.22-10.42,2.23c-5.19-3.04-9.24-12.28-11.52-15.97c-0.01-0.01-0.02-0.03-0.03-0.04
							c-4.95,28.04,1.78,34.43-1.63,37.38c-3.6,3.12-8.74-1.49-20.06,3.42c-7.42,3.22-17.72,7.88-24.66,8.69
							c-3.64,0.43-6.35-0.21-7.23-2.66C337.22,521.92,349.57,502.97,346.48,490.03z"/>
						<path class="st10" d="M381.09,429.27c0,0,0.31,1.3,3.54,1.1c0,0,2.71-0.17,2.63-1.59
							C387.25,428.77,384.62,427.76,381.09,429.27z"/>
						<path class="st7" d="M339.8,529.06c0.88,2.46,3.6,3.09,7.23,2.66c4.8-2.09,25.53-10.12,25.3-15.57
							c-0.34-8.06-3.99-8.32-1.41-18.26c2.07-7.99-17.09-22.84-20.15-26.06c-5.75,10.9-5.9,11.41-4.29,18.2
							C349.57,502.97,337.22,521.92,339.8,529.06z"/>
						<path class="st6" d="M337.45,500c3.68-5.16,7.51-7.89,10.03-9.27c-0.58-1.49,15.47-21.17,15.47-24.21
							c0-3.09,4.28-24.94,4.28-24.94s-13.37,0.83-18,7.28C343.44,456.93,331.42,488,337.45,500z"/>
						<path class="st5" d="M347.48,490.73l26.72,6.97l-2.51,4.5c0,0-32.51-0.23-34.24-2.21
							C335.73,498.02,347.48,490.73,347.48,490.73z"/>
						<path class="st7" d="M393.4,482.28c2.28,3.68,6.33,12.93,11.52,15.97c3.4,1.99,8.03-0.78,10.42-2.23
							c-0.77-1.36-1.65-2.92-2.36-4.85c-1.91,0.44-4.24,1-5.74,1.45C404.31,493.5,393.4,482.28,393.4,482.28z"/>
						<path class="st5" d="M374.2,497.7c0,0,8.39-2.37,10.39-1.82c2,0.56,8.85,5.09,7.88,6.32c-0.96,1.23-6.99-0.74-9.77-0.36
							s-4.92,1.74-6.92,1.45c-2-0.3-4.09-1.08-4.09-1.08L374.2,497.7z"/>
						<path class="st5" d="M374.2,497.7c0,0,4.1-2.11,5.27-3.31c0.15-0.15,0.4-0.12,0.51,0.06c0.31,0.49,0.61,1.45-0.83,2.39
							C377.07,498.21,374.2,497.7,374.2,497.7z"/>
					</g>
				</g>
				<g>
					<path class="st11" d="M412.97,509.51h-39.14l0,0c0-1.72,1.4-3.12,3.12-3.12h36.02V509.51z"/>
					<polygon class="st11" points="412.86,466.88 473.37,466.88 458.86,509.51 397.95,509.51 					"/>
					<polygon class="st12" points="474.27,466.88 459.75,509.51 398.84,509.51 413.75,466.88 					"/>
					<path class="st13" d="M441.64,487.8c-0.38,1.63-2,2.95-3.63,2.95s-2.64-1.32-2.27-2.95c0.38-1.63,2-2.95,3.63-2.95
						C441,484.85,442.01,486.17,441.64,487.8z"/>
					<path class="st14" d="M474.27,466.88l-14.52,42.63h-40.34c26.72-9.12,33.83-36.93,35.03-42.63H474.27z"/>
				</g>
			</g>
			<g>
				<g>
					<g>
						<path class="st15" d="M298.58,639.94c0.77,0,1.42-0.54,1.55-1.27l7.6-43.08l10.93-61.96l3.06-17.33l-7.79-0.22l-1.35,10.06
							l-9.49,70.68l-5.62,41.9C297.38,639.37,297.9,639.94,298.58,639.94z"/>
					</g>
					<path class="st16" d="M312.58,526.14c5.05,2.23,6.08,7.49,6.08,7.49l3.06-17.33l-7.79-0.22L312.58,526.14z"/>
				</g>
				<g>
					<g>
						<path class="st15" d="M492.26,639.94c-0.77,0-1.42-0.54-1.55-1.27l-7.6-43.08l-10.93-61.96l-3.06-17.33l7.79-0.22l1.35,10.06
							l9.49,70.68l5.62,41.9C493.46,639.37,492.94,639.94,492.26,639.94z"/>
					</g>
					<path class="st16" d="M478.26,526.14c-5.04,2.23-6.08,7.49-6.08,7.49l-3.06-17.33l7.79-0.22L478.26,526.14z"/>
				</g>
				<path class="st16" d="M295.43,523.1h195.31c3.74,0,6.8-3.06,6.8-6.8l0,0c0-3.74-3.06-6.8-6.8-6.8H295.43
					c-3.74,0-6.8,3.06-6.8,6.8v0C288.63,520.04,291.69,523.1,295.43,523.1z"/>
			</g>
		</g>
		<path class="st17" d="M1188.44,639.53H16.47c-0.86,0-1.56-0.7-1.56-1.56l0,0c0-0.86,0.7-1.56,1.56-1.56h1171.97
			c0.86,0,1.56,0.7,1.56,1.56v0C1190,638.83,1189.3,639.53,1188.44,639.53z"/>
		<g>
			<path class="st5" d="M788.7,502.25c0,0-5.17,6.42-3.56,7.29c1.62,0.87,5.89,2.51,6.9,1.48c1.01-1.03,1.32-8.59,1.32-8.59
				L788.7,502.25z"/>
			<path class="st5" d="M788.91,502.36c0,0-2.12,0.73-2.95,1.83c-0.83,1.1-2.67,2.78-2.22,3.24s3.09-1.59,3.09-1.59L788.91,502.36z"
				/>
			<path class="st18" d="M808.25,416.58c0,0-5.83,54.28-6.35,55.83c-0.11,0.34-0.57,2.05-1.21,4.53c-0.92,3.53-2.21,8.6-3.44,13.43
				c-1.86,7.29-3.56,14.01-3.56,14.01l-5.06-1.67c0,0-0.26-26.38,1.04-32.45c1.3-6.08,5.47-43.39,7.57-48.42
				C799.34,416.81,808.25,416.58,808.25,416.58z"/>
			<g>
				<path class="st19" d="M796.13,546.74l-31.8-8.34c-4.14-1.09-6.64-5.36-5.55-9.5l3.61-13.78c1.09-4.14,5.36-6.64,9.5-5.55
					l31.8,8.34c4.14,1.09,6.64,5.36,5.55,9.5l-3.61,13.78C804.54,545.32,800.27,547.82,796.13,546.74z"/>
				<path class="st20" d="M766.59,516.21l-3.66,13.94c-0.71,2.7,0.1,5.46,1.89,7.35c0.59,0.63,1.3,1.17,2.09,1.57c0,0,0,0,0,0l0,0
					c0.49,0.26,1.02,0.46,1.58,0.61l31.74,8.32c4.15,1.09,8.44-1.42,9.53-5.57l3.66-13.94c1.09-4.15-1.42-8.44-5.57-9.53
					l-10.93-2.87l0.78-2.97c0.36-1.37-0.47-2.78-1.84-3.15l-1.2-0.31l-6.65-1.74l-1.65-0.43c-0.66-0.17-1.36-0.08-1.95,0.27
					c-0.6,0.35-1.02,0.91-1.19,1.57l-0.78,2.97l-6.33-1.66c-0.25-0.07-0.5-0.12-0.75-0.16c0,0,0,0-0.01,0l0,0
					c-2.55-0.41-5.07,0.5-6.8,2.25l0,0C767.64,513.67,766.94,514.85,766.59,516.21z M795.37,515.68l-11.36-2.98l0.78-2.97
					c0.13-0.51,0.66-0.82,1.17-0.69l2.85,0.75l5.23,1.37l1.41,0.37c0.1,0.03,0.18,0.07,0.27,0.12c0.35,0.22,0.53,0.64,0.42,1.06
					L795.37,515.68z"/>
			</g>
			<path class="st5" d="M791.72,511.16c0,0,1.41-2.38,0.88-3.21c-0.53-0.83-2.43,2.47-2.43,2.47s1.3-2.83,0.82-3.3
				c-0.49-0.47-2.48,2.79-2.48,2.79s1.24-2.75,0.81-2.84c-0.44-0.09-1.91,2.31-1.91,2.31s0.77-2.06,0.07-1.96
				c-0.7,0.1-2.22,1.98-2.22,1.98L791.72,511.16z"/>
			<path class="st21" d="M800.69,476.93c-0.92,3.53-2.21,8.6-3.44,13.43c-0.79-2.23-1.8-5.78-2.44-10.65
				c-1.17-8.98,2.43-28.12,2.43-28.12L800.69,476.93z"/>
			<path class="st5" d="M867.39,500.02c0,0,5.64,4.58,6.33,6.01c0.7,1.43,2.45,6.73,2.36,8.43c-0.09,1.71-4.32-3.91-5.56-4.36
				c-1.24-0.45,1.3,2.3,1.01,2.9c-0.29,0.59-2.93-1.34-3.94-1.97c-1.01-0.63-1.72-4.92-3.22-7.25
				C862.87,501.45,867.39,500.02,867.39,500.02z"/>
			<path class="st22" d="M793.41,637.14h28.11c2.01-1.37-0.54-14.72-0.54-14.72s-7.67-2.91-9,3.01c-1.33,5.92-9.77,7.8-14.24,8.52
				C794.69,634.45,793.72,636.13,793.41,637.14z"/>
			<path class="st22" d="M835.1,637.14h28.11c2.01-1.37-0.54-14.72-0.54-14.72s-7.67-2.91-9,3.01c-1.33,5.92-9.77,7.8-14.24,8.52
				C836.37,634.45,835.41,636.13,835.1,637.14z"/>
			<path class="st23" d="M800.98,500.93c0,0,1.26,15.76,2.75,34.71c2.02,25.74,7.46,89.55,7.46,89.55s3.57,3.04,11.47,1.38
				c0,0,6.73-22.02,8.74-47.14c0.03-0.41,0.06-0.83,0.09-1.24c1.87-25.58,4.78-79.44,4.78-79.44L800.98,500.93z"/>
			<path class="st22" d="M800.55,495.48c0,0,1.69,21.21,3.18,40.16l27.68,43.79c0.03-0.41,0.06-0.83,0.09-1.24
				c1.87-25.58,4.78-79.44,4.78-79.44L800.55,495.48z"/>
			<path class="st23" d="M808.61,495.48c0,0,20.07,49.96,26.49,68.9c4.57,13.49,17.46,60.82,17.46,60.82s5.61,1.71,10.32-1.59
				c0,0,4.8-48.35-4.89-61.99c-5.14-7.23-1.28-75.19-22.12-75.77C815.03,485.27,808.61,495.48,808.61,495.48z"/>
			<path class="st18" d="M846.86,500.02c-8.37,4.72-44.23,4.62-45.89,0.91c-3.71-8.28-4.64-50.33-2.89-63.23
				c0,0,0.91-19.82,2.89-18.95c13.24-6.08,34.68-0.56,34.68-0.56c5.78,1.7,5.28,14.91,6.9,33.46c0.21,2.39,0.44,4.88,0.7,7.46
				c1.14,11.45,2.8,24.61,5.32,38.49C848.74,498.51,848.11,499.32,846.86,500.02z"/>
			<path class="st5" d="M825.75,415.96c-0.22,3.55-4.85,3.14-10.41,1.87c-5.56-1.27-3.55-4.55-3.55-4.55s0.08-2.52,0.43-5.54
				c0.13-1.1,0.29-2.27,0.5-3.4c0.1-0.55,0.21-1.1,0.33-1.63c0.73-3.12,11.11-0.11,11.03,0.73
				C823.89,405.72,825.54,413.17,825.75,415.96z"/>
			<polygon class="st22" points="813.84,422.15 813.4,417.25 819.55,418.41 817.18,422.78 			"/>
			<path class="st21" d="M811.93,410.98l-3.68,5.59c0,0,0,3.44,3.19,5.94l5.03-4.68C816.47,417.83,813.22,416.59,811.93,410.98z"/>
			<path class="st21" d="M816.47,417.83c0,0,1.04,3.74,3.06,5.46c0,0,7.85-2.11,9.72-6.13l-4.09-5.28
				C825.16,411.87,824.97,415.87,816.47,417.83z"/>
			<path class="st24" d="M824.16,405.22c0,0-5,3.32-11.92,2.53c0.13-1.1,0.29-2.27,0.5-3.4c1.37-0.33,2.51-0.54,2.51-0.54
				L824.16,405.22z"/>
			<path class="st5" d="M827.33,401.44c-2.44,6.72-11.36,5.01-15.15,3.93c-1.07-0.3-1.73-0.55-1.73-0.55
				c-1.17-0.53-1.54-2.58-1.43-5.17c0.2-5.12,2.22-12.34,3.38-14.09c1.75-2.62,4.66-5.28,13.3-1.57
				C834.35,387.7,830.46,392.82,827.33,401.44z"/>
			<path class="st22" d="M834.01,397.99c-2.73,2.23-8.59,6.35-8.59,6.35s0.65-0.77,1.45-2.99c0.09-0.25,0.12-0.62,0.11-1.01
				c-0.03-1.09,0.23-2.18,0.8-3.11c0.36-0.58,0.49-1.18,0.04-1.61c-0.74-0.7-2.01-0.06-2.84,0.51c-0.55,0.37-1.27,0.4-1.83,0.05
				c0,0-0.01,0-0.01-0.01c-2.33-1.46,0.24-4.03-1.65-6.17c-1.9-2.14-10.1-2.43-9.77-3.77c-2.8-1.58-1.03-7.42-0.98-7.73
				c0,0,4.02,0.36,9.04-0.9c4.07-1.02,8.56,1.59,9.99,2.67c0-0.26-0.04-0.62-0.23-1c0,0,0.62,0.61,0.61,1.32
				c0.06,0.06,0.09,0.11,0.07,0.12c0,0,0.81-0.02,1.28,0.3c0,0-0.35-0.11-0.51,0.1c-0.02,0.02-0.04,0.04-0.07,0.05
				C836.35,385.01,836.27,396.13,834.01,397.99z"/>
			<path class="st10" d="M814.43,400.47c0,0-0.44,0.85-2.64,0.14c0,0-1.85-0.59-1.54-1.56C810.25,399.05,812.25,398.8,814.43,400.47
				z"/>
			<path class="st25" d="M813.84,422.15c0,0-4.91,62.06-4.84,67.23c0.07,5.17,5.44,10.64,5.44,10.64s4.28-4.69,5.12-9.63
				c0.84-4.95-2.37-67.6-2.37-67.6L813.84,422.15z"/>
			<path class="st18" d="M835.66,418.19c0,0,7.93,1.9,14.2,13.94c6.27,12.04,11.22,36.32,14.21,42.73
				c2.99,6.41,5.04,26.59,5.04,26.59l-4.74,2.33c0,0-11.44-20.69-13.13-27.47c-0.92-3.67-14.9-33.05-14.9-33.05L835.66,418.19z"/>
			<path class="st21" d="M846.86,500.02C846.86,500.02,846.86,500.02,846.86,500.02c-14.93-2.15-10.66-51.55-9.49-51.75
				c1.17-0.2,5.46,8.83,5.46,8.83l0.41,2c1.14,11.45,2.8,24.61,5.32,38.49C848.74,498.51,848.11,499.32,846.86,500.02z"/>
		</g>
		<g>
			<g>
				<path class="st22" d="M1033.11,607.94c0,0,6.22,5.67,5,9.7c-1.21,4.03-6.82,6.72-7.58,11.64c-0.76,4.93-3.79,7.61-6.52,7.61
					c-2.73,0-13.01,0-13.01,0s-2.01-3.47,2.84-4.51c4.85-1.04,6.68-6.83,6.38-12.21c-0.3-5.37,0.45-12.54,0.45-12.54l10.31-2.39
					L1033.11,607.94z"/>
				<path class="st22" d="M956.86,622.61c0,0,1.12,12.91-1.61,14.25l-34.92-0.07c0,0,0-4.03,5.61-4.93
					c5.61-0.9,15.46-4.18,17.13-11.49C944.73,613.06,956.86,622.61,956.86,622.61z"/>
				<path class="st25" d="M927.37,440.27c0,0,1.84,22.63,4.01,49.83c2.94,36.95,6.48,82.33,6.83,90.93
					c0.6,14.93,3.03,38.81,3.03,38.81s5.76,5.67,17.28,3.28c0,0,10.27-34.09,13.2-70.16c0.05-0.59,0.09-1.19,0.14-1.78
					c2.73-36.72,6.97-114.04,6.97-114.04L927.37,440.27z"/>
				<path class="st22" d="M927.37,440.27c0,0,1.84,22.63,4.01,49.83l40.35,62.86c0.05-0.59,0.09-1.19,0.14-1.78
					c2.73-36.72,6.97-114.04,6.97-114.04L927.37,440.27z"/>
				<path class="st25" d="M935.79,442.95c0,0,33.2,81.95,55.03,120.46c21.83,38.51,28.65,49.26,28.65,49.26s12.51-4.93,13.64-8.28
					c0,0-8.35-74.35-22.97-92.47c-8.26-10.24-15.38-32.96-15.03-43.71c0.62-18.54-6.35-40.03-6.35-40.03L935.79,442.95z"/>
			</g>
			<path class="st5" d="M909.27,444.16c0,0-6.2,8.39-6.65,10.63c-0.46,2.24-0.99,10.24-0.25,12.58c0.74,2.34,4.61-6.99,6.17-8.06
				c1.56-1.08-0.98,3.67-0.37,4.39c0.61,0.72,3.6-2.92,4.77-4.16c1.18-1.24,0.62-7.45,1.88-11.24
				C916.08,444.53,909.27,444.16,909.27,444.16z"/>
			<path class="st10" d="M936.61,322.18c0,0-8.38,77.98-9.12,80.2c-0.16,0.48-0.82,2.95-1.75,6.5c-1.32,5.07-3.18,12.36-4.95,19.29
				c-2.67,10.47-5.55,19.52-5.55,19.52s-1.26,0.82-4.32,0.56c-2.08-0.18-3.2-1.96-3.2-1.96s0.31-38.28,2.17-47.01
				c1.87-8.73,7.85-62.34,10.88-69.56C923.8,322.52,936.61,322.18,936.61,322.18z"/>
			<path class="st26" d="M925.74,408.89c-1.32,5.07-3.18,12.36-4.95,19.29c-1.14-3.2-2.59-8.3-3.5-15.29
				c-1.68-12.9,3.49-40.4,3.49-40.4L925.74,408.89z"/>
			<path class="st10" d="M992.08,442.06c-12.02,6.78-63.54,6.63-65.92,1.31c-5.33-11.89-6.67-72.3-4.15-90.84
				c0,0,1.3-28.48,4.15-27.22c19.03-8.74,49.82-0.8,49.82-0.8c8.3,2.45,7.59,21.42,9.91,48.07c0.3,3.43,0.63,7.01,1,10.71
				c1.64,16.46,4.02,35.36,7.65,55.3C994.78,439.89,993.86,441.05,992.08,442.06z"/>
			<path class="st5" d="M961.75,321.3c-0.32,5.09-6.96,4.52-14.95,2.69c-7.98-1.82-5.09-6.53-5.09-6.53s0.12-3.62,0.62-7.96
				c0.19-1.58,0.42-3.25,0.72-4.88c0.14-0.8,0.3-1.58,0.48-2.34c1.04-4.48,15.96-0.16,15.85,1.05
				C959.08,306.59,961.44,317.3,961.75,321.3z"/>
			<polygon class="st22" points="944.63,330.19 944,323.15 952.84,324.82 949.44,331.1 			"/>
			<path class="st26" d="M941.9,314.15l-5.28,8.04c0,0,0,4.94,4.59,8.53l7.22-6.73C948.42,323.99,943.75,322.2,941.9,314.15z"/>
			<path class="st26" d="M948.42,323.99c0,0,1.5,5.37,4.39,7.84c0,0,11.28-3.03,13.97-8.81l-5.88-7.59
				C960.91,315.43,960.62,321.16,948.42,323.99z"/>
			<path class="st24" d="M959.46,305.86c0,0-7.18,4.77-17.13,3.64c0.19-1.58,0.42-3.25,0.72-4.88c1.96-0.48,3.61-0.77,3.61-0.77
				L959.46,305.86z"/>
			<path class="st5" d="M964.02,300.44c-3.51,9.66-16.32,7.19-21.77,5.64c-1.54-0.43-2.49-0.8-2.49-0.8
				c-1.69-0.76-2.21-3.71-2.06-7.42c0.29-7.35,3.19-17.73,4.86-20.24c2.51-3.76,6.69-7.59,19.11-2.26
				C974.1,280.7,968.52,288.06,964.02,300.44z"/>
			<path class="st20" d="M973.61,295.48c-3.92,3.2-12.35,9.12-12.35,9.12s0.94-1.11,2.08-4.3c0.13-0.36,0.17-0.89,0.15-1.46
				c-0.05-1.57,0.33-3.13,1.15-4.46c0.51-0.83,0.7-1.7,0.05-2.31c-1.06-1.01-2.88-0.08-4.07,0.73c-0.79,0.54-1.82,0.57-2.63,0.07
				c0,0-0.01-0.01-0.01-0.01c-3.35-2.1,0.35-5.8-2.37-8.86c-2.73-3.07-14.51-3.49-14.04-5.41c-4.02-2.27-1.49-10.66-1.41-11.1
				c0,0,5.77,0.51,12.98-1.29c5.85-1.47,12.3,2.29,14.35,3.84c0-0.37-0.06-0.89-0.32-1.43c0,0,0.89,0.88,0.87,1.9
				c0.09,0.09,0.13,0.15,0.1,0.17c0,0,1.17-0.02,1.85,0.43c0,0-0.5-0.16-0.73,0.14c-0.03,0.03-0.06,0.06-0.1,0.08
				C976.98,276.83,976.87,292.82,973.61,295.48z"/>
			<path class="st10" d="M945.49,299.04c0,0-0.63,1.22-3.8,0.21c0,0-2.66-0.85-2.22-2.25C939.48,297,942.35,296.65,945.49,299.04z"
				/>
			<path class="st25" d="M944.63,330.19c0,0-7.05,89.16-6.96,96.59c0.1,7.43,7.82,15.28,7.82,15.28s6.15-6.73,7.35-13.84
				c1.2-7.11-3.4-97.11-3.4-97.11L944.63,330.19z"/>
			<path class="st26" d="M992.08,442.06c-0.01,0-0.01,0-0.01,0c-21.44-3.09-15.3-74.06-13.62-74.34c1.68-0.28,7.85,12.69,7.85,12.69
				l0.59,2.88c1.64,16.46,4.02,35.36,7.65,55.3C994.78,439.89,993.86,441.05,992.08,442.06z"/>
			<g>
				<path class="st19" d="M1055.12,494.93l-45.35,13.2c-5.9,1.72-12.14-1.71-13.85-7.61l-5.72-19.65
					c-1.72-5.9,1.71-12.14,7.61-13.85l45.35-13.2c5.9-1.72,12.14,1.71,13.85,7.61l5.72,19.65
					C1064.45,486.98,1061.02,493.21,1055.12,494.93z"/>
				<path class="st20" d="M996.17,479.11l5.79,19.88c1.12,3.85,4.15,6.65,7.76,7.66c1.2,0.34,2.46,0.48,3.74,0.4c0,0,0,0,0.01,0l0,0
					c0.8-0.05,1.6-0.19,2.4-0.42l45.27-13.17c5.92-1.72,9.36-7.98,7.64-13.9l-5.78-19.88c-1.73-5.92-7.98-9.36-13.91-7.64
					l-15.59,4.54l-1.23-4.24c-0.57-1.96-2.63-3.09-4.59-2.52l-1.71,0.5l-9.48,2.76l-2.36,0.69c-0.95,0.27-1.73,0.91-2.21,1.77
					c-0.48,0.87-0.59,1.87-0.31,2.82l1.23,4.24l-9.03,2.63c-0.36,0.1-0.7,0.23-1.04,0.36c0,0,0,0-0.01,0l0,0
					c-3.44,1.38-5.88,4.35-6.71,7.79l0,0C995.6,475.2,995.61,477.17,996.17,479.11z M1031.26,457.21l-16.2,4.72l-1.23-4.24
					c-0.21-0.73,0.21-1.5,0.94-1.71l4.07-1.18l7.46-2.17l2.01-0.58c0.14-0.04,0.28-0.06,0.41-0.05c0.59,0.01,1.13,0.4,1.3,0.99
					L1031.26,457.21z"/>
			</g>
			<path class="st5" d="M1017.68,444.52c0,0-1.41,11.76,1.23,11.59c2.64-0.17,9.09-1.43,9.53-3.46c0.44-2.02-4.94-11.47-4.94-11.47
				L1017.68,444.52z"/>
			<path class="st5" d="M1018.02,444.49c0,0-2.02,2.51-2.19,4.48c-0.17,1.97-1.14,5.42-0.23,5.64c0.9,0.22,2.55-4.29,2.55-4.29
				L1018.02,444.49z"/>
			<path class="st10" d="M975.98,324.5c0,0,11.39,2.73,20.39,20.02c9,17.3,16.12,52.18,20.41,61.39c4.3,9.21,7.57,36.84,7.57,36.84
				s-0.67,1.37-2.99,1.88c-1.8,0.39-3.64,0.24-3.64,0.24s-16.93-27.12-19.36-36.87c-1.32-5.27-21.41-47.48-21.41-47.48L975.98,324.5
				z"/>
		</g>
		<g>
			<polygon class="st5" points="225.89,625.64 224.19,613.35 231.36,607.36 233.61,623.63 			"/>
			<path class="st22" d="M249.7,636.62h-29.22c0,0-0.7-4.45,0.83-7.83c1.46-3.24,3.74-5.24,3.95-7.73c1.86,1.91,4.14,3.14,8.37,2.57
				c0.52,0.84,3.34,5.33,5.07,6.57C240.6,631.58,249.11,631.09,249.7,636.62z"/>
			<path class="st12" d="M243.83,459.67c-1.91,15.37-3.47,29.87-4.75,43.38c-6.8,71.98-5.47,115.97-5.47,115.97s-0.49,1.3-4.71,1.32
				c-2.38,0.01-4.72-0.51-4.72-0.51s-15.23-47-14.05-73.75c0.14-3.22,0.52-6.14,1.19-8.66c3.65-13.68-13.52-66.02,5.15-85.51
				C235.13,432.43,244.71,452.62,243.83,459.67z"/>
			<path class="st11" d="M243.83,459.67c-1.91,15.37-3.47,29.87-4.75,43.38l-28.95,43.04c0.14-3.22,0.52-6.14,1.19-8.66
				c3.65-13.68-13.52-66.02,5.15-85.51C235.13,432.43,244.71,452.62,243.83,459.67z"/>
			<path class="st5" d="M266.83,313.03c0,0-0.7-3.51-1.5-6.19c-0.35-1.19,2.1-8.98,3.79-9.94c1.69-0.96,6.1,4.29,4.85,8.32
				c-0.64,2.07-1.69,8.8-1.69,8.8L266.83,313.03z"/>
			<path class="st5" d="M266.83,313.03c0,0-0.92-2.04-1.75-2.37c-0.83-0.33-1.72-3.66-2.33-4.98c0,0,0.59-0.86,1.62,0.25
				c0.63,0.68,2.03,2.67,2.03,2.67L266.83,313.03z"/>
			<path class="st5" d="M146.18,324.84c-0.18,0.37-0.43,1.03-0.65,1.65c0-0.17-0.01-0.34-0.01-0.5c-0.01-1.24-4.63-7.97-6.53-8.39
				c-1.9-0.42-4.58,5.89-2.21,9.37c1.22,1.79,4.2,7.92,4.2,7.92l4.92-2.54c0,0,0.28-2.22,0.98-2.78c0.7-0.56,0.58-4,0.77-5.45
				C147.66,324.13,146.85,323.48,146.18,324.84z"/>
			<path class="st5" d="M176.88,621.96c-0.41-3.94-0.52-14.3-0.52-14.3s10.56-3.38,10.17-1.06c-1.91,11.4-1.39,17.04-1.39,17.04
				l-4.27,2.55L176.88,621.96z"/>
			<path class="st12" d="M235.01,458.94c0,0-40.8,111.84-48.83,160.35c0,0-1.86,1.28-5.33,0.85c-3.94-0.48-5.02-3.22-5.02-3.22
				s-7.37-58.14,7.28-78.33c10.06-13.87-4.34-74.78,19.1-79.66C225.65,454.06,235.01,458.94,235.01,458.94z"/>
			<path class="st7" d="M227.76,351.36C227.76,351.35,227.76,351.35,227.76,351.36c-0.01-0.05-0.02-0.1-0.03-0.15
				c-0.24-0.98-0.5-1.95-0.78-2.91c0,0,0,0,0,0c-0.85-2.94-1.87-5.74-2.97-8.21c-0.63-1.42-1.28-2.73-1.95-3.9
				c-0.1-0.18-0.2-0.35-0.3-0.52l0,0c-1.58-2.65-3.2-4.48-4.66-5.05c-2.67-1.03-5.63-0.74-7.68-0.32c0.45-0.62,1.47-0.98,1.47-0.98
				c-1.31,0-3.97,1.69-3.97,1.69c-18.79-4.2-17.69,22.38-16.41,28.41c1.28,6.03-4.78,8.95-13.31,15.12
				c-16.28,11.76-16.01,24.23-16.01,24.23c0.15,0.06,0.31,0.13,0.47,0.22c0.66-1.61,2.05-4.67,3.5-5.31
				c-0.04,0.14-1.23,4.1-1.56,6.31c2.48,1.37,5.91,3.48,9.64,5.87c0,0,0,0,0,0c4.99,3.19,10.49,6.86,14.9,9.85
				c-0.21-1.21-0.42-2.94-0.11-3.92l1.41,4.35l0.18,0.57c2.82,1.91,5.04,3.43,6.16,4.22c0.12,0.08,0.22,0.15,0.31,0.21
				c0.33,0.23,0.51,0.35,0.51,0.35c-0.37-1.54,1.27-5.55,4.03-10.61c0.19-0.35,0.39-0.71,0.59-1.07c0.89-1.6,1.88-3.28,2.95-5.02
				c0.39-0.63,0.77-1.26,1.18-1.89c0,0,0,0,0,0c0.32-0.51,0.65-1.03,0.99-1.55l0,0c0.8-1.23,1.63-2.48,2.47-3.72
				c2.18-3.23,4.5-6.43,6.78-9.37c3.32-4.28,6.57-8,9.3-10.43c0.09-0.18,0.17-0.37,0.25-0.56c0.43-0.99,0.75-2.09,1.01-3.21
				c0.08-0.34,0.15-0.68,0.21-1.01c0.68-3.58,0.69-7.13,0.68-7.97c0.22,3.46,0.13,6.06-0.1,8.03c-0.05,0.43-0.11,0.83-0.17,1.2l0,0
				c-0.15,0.84-0.31,1.54-0.49,2.11c0.45-0.55,0.84-1.16,1.19-1.82c0.23-0.43,0.43-0.89,0.62-1.37
				C230.26,367.59,229.67,359.21,227.76,351.36z"/>
			<path class="st5" d="M224.23,378.29c0.06,0.02-5.26,3.87-9.78,3.33c-4.25-0.51-7.7-5.4-7.65-5.42c1.68-0.6,1.82-3.05,0.27-13.25
				l0.8,0.04l13.53,0.65c0,0,0.32,4.18,0.89,8.08C222.77,374.98,223.43,378.05,224.23,378.29z"/>
			<path class="st9" d="M221.4,363.63c0,0,0.32,4.18,0.89,8.08c-7.38,0.89-12.27-5.24-14.41-8.72L221.4,363.63z"/>
			<path class="st7" d="M206.31,361.75c0,0-4.76-5.52-6.46-10.58c-1.21-3.62-1.37-17.68,12.77-17.75c0,0,4.08-0.2,8.24,1.79
				c3.31,1.58,8.3,5.32,5.24,18.07l-0.66,4.25L206.31,361.75z"/>
			<path class="st10" d="M245.53,456.79c0,0-17.6,10.46-39.7,5.08c-0.26-0.06-18.2-2.93-18.2-2.93c0.31-0.84,2.63-14.7,2.93-15.48
				c3.92-10.12,11.09-65.03,17.07-67.74c1.53,1.67,5.9,2.8,9.64,2.47c4.31-0.38,5.75-2.24,5.39-4.24c4.77,2.25,8.43,4.35,8.43,4.35
				C235.44,384.83,245.53,456.79,245.53,456.79z"/>
			<path class="st5" d="M224.41,366.95c0,0-17.35,2.87-18.98-7.96c-1.62-10.84-4.96-17.76,6.05-20.06c11.01-2.29,13.79,1.52,15.21,5
				C228.12,347.42,228.88,365.92,224.41,366.95z"/>
			<path class="st7" d="M219.37,337.49c0,0-2.87,13.42-9.9,16.39c-7.03,2.97-10.49,1.48-10.49,1.48s4.94-5.29,4.95-13.24
				C203.92,342.12,214.88,331.97,219.37,337.49z"/>
			<path class="st7" d="M218.34,338.7c0,0,3.98,2.31,5.26,4.94c1.28,2.63,2.51,8.25,4.14,7.81c0,0,2.3-9.18-2.46-13.46
				C220.23,333.44,218.34,338.7,218.34,338.7z"/>
			<path class="st23" d="M272.4,313.28c-0.71-0.25-1.75-0.84-3.1-0.96c-1.21-0.11-2.73,0.29-2.73,0.29s-4.9,30.44-5.26,32.05
				c-0.36,1.61-21,24.86-26.57,24.77c-5.02-0.08-10.98,3.79-12.08,4.54c0,0,11.7,24.74,12.28,29.39c0.63,5.06,6.69,82.94,6.69,82.94
				s-0.36,3.62,6.41,1.68c6.77-1.95,8.46-3.56,8.46-3.56s-6.22-61.31-7.52-80.38c-0.18-2.56-0.59-4.93-1.19-7.11
				c-0.57-2.11-0.12-4.36,1.16-6.13c8.56-11.75,22.07-30.78,22.83-34.83C272.9,350.01,272.4,313.28,272.4,313.28z"/>
			<path class="st22" d="M201.23,636.62h-29.22c0,0-0.7-4.45,0.83-7.83c1.46-3.24,3.74-5.24,3.95-7.73
				c1.86,1.91,4.14,3.14,8.37,2.57c0.52,0.84,3.34,5.33,5.07,6.57C192.13,631.58,200.64,631.09,201.23,636.62z"/>
			<path class="st23" d="M221.31,405.75c-0.98-6.06-13.56-30.4-13.56-30.4s-7.95-2.38-13.18-0.48c-5.23,1.9-32.3-13.39-33.17-14.8
				c-0.87-1.41-15.37-28.43-15.37-28.43s-1.2-0.7-3.13,0.31c-1.91,0.99-1.91,2.93-1.91,2.93s11.19,34.02,14.17,39.28
				c1.8,3.17,16.89,14.22,28.59,22.49c2.23,1.58,3.41,4.27,3.04,6.98c-1.57,11.63-1.97,18.18-3.78,38.14
				c-1.5,16.56-2.08,48.62-2.08,48.62s13.1,4.53,22.13,5.13c9.04,0.6,11.01-8.93,11.01-8.93S222.32,411.99,221.31,405.75z"/>
			<path class="st10" d="M218.72,361.59c0,0,2.11,1.24,4.6,0.86c1.71-0.26,2.09-2.28,2.09-2.28s-1.19-0.37-3.08,0.01
				C220.44,360.57,218.72,361.59,218.72,361.59z"/>
		</g>
		<g>
			<path class="st5" d="M773.05,155.04c0,0-8.12-14.43,0-17.37c8.12-2.94,11.8-0.23,12.18,3.06c0.39,3.29-3.09,16.24-3.09,16.24
				L773.05,155.04z"/>
			<path class="st12" d="M779.56,247.34c-14.81,2.67-28.42,3.91-40.71,4.18c-11.66,0.26-22.13-0.34-31.29-1.41
				c-2.46-0.28-4.82-0.6-7.09-0.94c-23.97-3.64-37.21-10.08-37.21-10.08s21.9-45.85,39.6-44.09c20.76,2.07,55.93,20.7,59.43,15.47
				c3.94-5.89,7.23-56.36,7.23-56.36c9.2-6.3,14.7,0.34,14.7,0.34S802.2,243.25,779.56,247.34z"/>
			<path class="st11" d="M779.56,247.34c-14.81,2.67-28.42,3.91-40.71,4.18c-11.66,0.26-22.13-0.34-31.29-1.41
				c-5.52-17.56-9.49-35.5,1.61-24.69C728.77,244.5,779.56,247.34,779.56,247.34z"/>
			<path class="st22" d="M661.6,617.53c0,0-1.58,18.23,2.28,20.12l49.31-0.1c0,0,0-5.69-7.92-6.96c-7.92-1.26-21.83-5.9-24.19-16.23
				C678.72,604.04,661.6,617.53,661.6,617.53z"/>
			<path class="st25" d="M697.8,396.93c-0.24,11.92-0.82,24.21-1.94,35.26c-5.33,52.43-7.2,115.77-7.96,127.99
				c-1.33,21.2-5.51,55.07-5.51,55.07s-8.31,7.89-24.5,4.12c0,0-13.42-48.78-16.41-100.15c-0.05-0.84-0.09-1.69-0.14-2.54
				c-0.35-6.79-0.71-14.56-1.08-22.93c-2.47-56.08-5.15-139.39-5.15-139.39l61.88-14.53C696.98,339.83,698.4,367.22,697.8,396.93z"
				/>
			<path class="st22" d="M697.8,396.93c-15.68,27.05-45.57,76.9-57.54,96.83c-2.47-56.08-5.15-139.39-5.15-139.39l61.88-14.53
				C696.98,339.83,698.4,367.22,697.8,396.93z"/>
			<path class="st5" d="M541.13,344.52c0,0-10.07,11.84-10.97,15.12c-0.91,3.28-2.52,15.11-1.65,18.67
				c0.86,3.55,7.56-9.91,9.99-11.35c2.43-1.44-1.83,5.36-1,6.49c0.83,1.13,5.64-3.97,7.51-5.69c1.87-1.73,1.69-11.01,3.94-16.5
				C551.2,345.76,541.13,344.52,541.13,344.52z"/>
			<path class="st22" d="M538.76,596.82c0,0-8.78,8.01-7.06,13.7c1.71,5.69,9.63,9.48,10.7,16.44c1.07,6.96,5.35,10.75,9.2,10.75
				c3.85,0,18.37,0,18.37,0s2.84-4.89-4.01-6.37c-6.85-1.48-9.43-9.65-9-17.24c0.43-7.59-0.64-17.7-0.64-17.7l-14.56-3.37
				L538.76,596.82z"/>
			<path class="st25" d="M687.23,355.63c0,0-57.92,123.93-88.75,178.31c-30.82,54.38-40.46,69.55-40.46,69.55
				s-17.66-6.96-19.26-11.7c0,0,11.79-104.98,32.43-130.57c11.66-14.46,25.36-57.85,26.01-73.03c0.64-15.17,14.17-51.39,14.17-51.39
				L687.23,355.63z"/>
			<path class="st12" d="M704.16,361.48c0,0-23.03,15.4-55.63,13.97c-14.31-0.63-42.69-4.68-47.27-16.06
				c-1.08-2.67-0.29-6.06,1.33-11.27c4.19-13.52,13.95-39.28,11-96.38c-0.28-5.31-0.13-10.31,0.38-14.99
				c3.07-28.13,19.19-44.78,34.77-50.23c38-13.28,50.66,5.12,50.66,5.12s16.8,13.31,19.33,41.08
				C723.79,288.27,704.16,361.48,704.16,361.48z"/>
			<path class="st5" d="M659.88,183.33c0,0,17.43,10.6,36.34,7.61c0,0,3.74-0.95,1.9-5.34c1.15-3.54,1.01-3.22,1.68-5.86
				c1.66-6.06,2.17-9.55,2.17-9.55l-10.73-11.28l-10.16-10.78C678.26,173.9,659.88,183.33,659.88,183.33z"/>
			<path class="st27" d="M679.44,157.9c0,0,5.84,15.61,20.36,21.84c1.66-6.06,2.74-12.39,2.74-12.39l-11.3-8.44L679.44,157.9z"/>
			<path class="st5" d="M714,169.65c0,0-33.28,4.16-35.62-16.29c-2.34-20.45-8.2-33.69,12.94-37.21
				c21.15-3.52,26.18,3.83,28.64,10.47C722.44,133.26,722.6,168.04,714,169.65z"/>
			<path class="st28" d="M667.88,112.83c-0.29-0.36-0.97-0.66-2.51-0.8c0,0,1.26-0.72,2.91-0.7c0.4-2.13,1.69-5.88,5.41-6.66
				c0,0-2.02,0.98-2.37,3.25c4.44-4.23,13.71-7.07,38.98-4.11c33.31,3.9,21.49,24.87,17.07,27.26c-4.42,2.39-15.04-5.02-23.12-4.68
				c-8.08,0.33-10.05,11.92-12.85,13.41c-2.79,1.49-1.61-1.29-5.25-3.1c-3.64-1.81-4.22,4.3-3.3,8.33c0.92,4.03-4.36,9.09-4.36,9.09
				s0,0-4.93-5.72c-4.93-5.72-8.88-29.33-6.36-34.24C667.43,113.71,667.65,113.27,667.88,112.83z"/>
			<g>
				<polygon class="st25" points="769.52,145.47 713.02,145.97 712.63,137.47 768.96,133.11 				"/>
				<polygon class="st25" points="812.16,146.89 750.65,147.77 749.95,132.32 811.29,127.57 				"/>
				<polygon class="st22" points="853.64,148.1 801.77,148.16 800.82,127.3 852.48,122.6 				"/>
				<path class="st22" d="M854.38,151.62L854.38,151.62c1.6-0.07,2.84-1.43,2.77-3.03l-1.22-26.8c-0.07-1.6-1.43-2.84-3.03-2.77l0,0
					c-1.6,0.07-2.84,1.43-2.77,3.03l1.22,26.8C851.43,150.45,852.78,151.69,854.38,151.62z"/>
				<path class="st25" d="M712.85,147.78L712.85,147.78c-1.42,0.06-2.63-1.04-2.69-2.46l-0.32-6.95c-0.06-1.42,1.04-2.63,2.46-2.69
					l0,0c1.42-0.06,2.63,1.04,2.69,2.46l0.32,6.95C715.37,146.51,714.27,147.72,712.85,147.78z"/>
			</g>
			<path class="st11" d="M602.59,348.12c4.19-13.52,13.95-39.28,11-96.38c-0.28-5.31-0.13-10.31,0.38-14.99l0,0
				c12.5-1.07,31.62,12.44,31.62,12.44S633.82,320.96,602.59,348.12z"/>
			<path class="st12" d="M659.88,183.33c0,0-32.06,5.51-48.79,25.93c-16.72,20.42-43.62,49.2-49.98,59.28
				c-6.36,10.08-24.02,78.68-24.02,78.68s1.17,2.21,6.03,3.49c4.66,1.23,8.04-0.68,8.04-0.68S574.56,310,583.36,290
				c3.66-8.31,66.92-41.22,90.7-37.81C683.4,253.54,659.88,183.33,659.88,183.33z"/>
			<path class="st5" d="M769.18,130.67c0,0,6.9,4.22,11.02,2.43c4.13-1.78,3.76-3.42,3.76-3.42S771.5,126.23,769.18,130.67z"/>
			<path class="st20" d="M690.99,205.7c0,0-14.07,88.84-113.91,114.7l-10.88,21.46l19.11,3.23c0,0,113.66-32.93,112.13-140.96
				L690.99,205.7z"/>
			<polygon class="st19" points="688.81,191.52 684.2,191.97 684.2,198.64 690.99,205.7 697.44,204.13 697.44,194.87 692.8,191.52 
							"/>
			<path class="st11" d="M670.72,173.85c0,0-4.46,1.01-14.66,9.48c0,0,10.14,21.53,31.54,24.11c0,0-0.35-9.99,1.2-15.92
				C688.81,191.52,671.85,185.45,670.72,173.85z"/>
			<path class="st11" d="M688.81,191.52c0,0,10.44,5.54,11.21,14.18c0,0,3.99-6.32,2.83-10.7c-1.16-4.38-4.74-9.4-4.74-9.4
				S698.48,190.88,688.81,191.52z"/>
		</g>
	</g>
</g>
</svg>
