<?xml version="1.0" encoding="utf-8"?>
<!-- Generator: Adobe Illustrator 24.3.0, SVG Export Plug-In . SVG Version: 6.00 Build 0)  -->
<svg version="1.1" id="Layer_1" xmlns="http://www.w3.org/2000/svg" xmlns:xlink="http://www.w3.org/1999/xlink" x="0px" y="0px"
	 viewBox="0 0 1111.15 800" style="enable-background:new 0 0 1111.15 800;" xml:space="preserve">
<style type="text/css">
	.st0{fill:#EAF3FB;}
	.st1{opacity:0.8;}
	.st2{fill:#D6E3F4;}
	.st3{fill:#B0C0E3;}
	.st4{fill:#9DD199;}
	.st5{fill:#FAAB77;}
	.st6{fill:#7694CC;}
	.st7{fill:#173257;}
	.st8{fill:#234F9D;}
	.st9{fill:#1E3966;}
	.st10{fill:#6581C0;}
	.st11{fill:#F79454;}
	.st12{fill:#2B3A68;}
	.st13{fill:#F79134;}
	.st14{fill:#F47621;}
	.st15{fill:#92AEDA;}
	.st16{fill:#5A84C3;}
	.st17{opacity:0.4;fill:#5A84C3;}
	.st18{fill:#6073B7;}
	.st19{fill:#E8F2FB;}
	.st20{fill:#F3753E;}
	.st21{fill:#E6EEF9;}
	.st22{fill:#163E6B;}
	.st23{fill:#18467F;}
	.st24{fill:#F89E63;}
	.st25{fill:#1A3763;}
	.st26{fill:#0A4E89;}
	.st27{opacity:0.5;}
	.st28{fill:#B0CDEB;}
	.st29{fill:#F79351;}
	.st30{fill:#FFFFFF;}
	.st31{fill:#1B4584;}
	.st32{fill:#C33D35;}
	.st33{fill:#F5904E;}
</style>
<g>
	<path class="st0" d="M1054.07,790.83c-68.51,0-994.79-2-994.79-2.11c-0.38-0.9-117.59-144.55,30-294.74
		c73.13-74.42-67.15-170.83,0-253.61c115.03-141.8,228.85-61.94,323.67-101.82c16.75-7.04,33.56-18.37,50.39-35.76
		c9.47-9.78,19.85-18.33,30.97-25.71c1.7-1.14,3.43-2.25,5.16-3.32c6.66-4.13,13.55-7.86,20.66-11.21
		c4.77-2.25,9.64-4.33,14.59-6.25h0c7.86-3.04,15.94-5.66,24.18-7.87c11.71-3.15,23.77-5.49,36.07-7.08
		c5.36-0.7,10.77-1.24,16.22-1.65c105.95-7.96,225.18,36.84,286.71,102.31c12.39,13.19,68.72,81.41,24.31,175.18
		c-28.04,59.21,89.41,115.75,131.15,183.36C1159.49,672.44,1055.03,788.59,1054.07,790.83z"/>
	<g class="st1">
		<path class="st2" d="M814.35,391.18c-2.83,7.78-6.3,15.14-10.33,22.06c-9.69,16.58-22.6,30.52-37.63,41.3
			c-34.91,25.05-81.19,33-124.62,17.21c-51.67-18.78-84.85-65.88-88.39-117.41c-0.47-6.79-0.43-13.66,0.17-20.55
			c0.98-11.57,3.49-23.2,7.65-34.63c3.36-9.24,7.63-17.9,12.66-25.89c0.06-0.09,0.12-0.18,0.17-0.27
			c13.98-22.08,33.84-39.13,56.68-49.81c6.48-3.03,13.2-5.55,20.1-7.53c3.29-0.94,6.62-1.76,9.98-2.45
			c23.56-4.85,48.72-3.44,73,5.38c3.22,1.17,6.36,2.45,9.43,3.84c4.34,1.95,8.52,4.11,12.55,6.46
			c16.96,9.89,31.16,23.16,42.04,38.61l0.01,0c6.78,9.62,12.27,20.08,16.34,31.1c2.14,5.79,3.88,11.72,5.2,17.77
			c0.83,3.77,1.49,7.57,2,11.41c1.21,9.23,1.46,18.65,0.7,28.12C821.11,367.68,818.58,379.54,814.35,391.18z"/>
		<g>
			<path class="st3" d="M665.37,272.88c-7.96,6.16-5.85,22.66-19.62,13.36c-13.78-9.3-22.43-14.35-26.32-6.24
				c-3.91,8.11,8.3,12.55,5.09,21.39c-3.21,8.84-9.75,9.77-16.64,2.51c-6.9-7.26-7.09-14.24-18.26-14.01
				c-11.16,0.23-15.93-4.36-15.38-12.74c0.09-1.47-0.06-2.75-0.37-3.89c0.06-0.09,0.12-0.18,0.17-0.27
				c13.98-22.08,33.84-39.13,56.68-49.81c6.48-3.03,13.2-5.55,20.1-7.53c3.29-0.94,6.62-1.76,9.98-2.45
				c3.89,1.58,8.07,4.79,10.28,11.23c4.86,14.16,12.74,10.83,6.05,22.69c-6.7,11.86-3.94,14.77,3.37,16.95
				c7.31,2.18,15.73,5.24,14.58,11.02C693.91,280.88,673.33,266.72,665.37,272.88z"/>
			<path class="st3" d="M814.35,391.18c-2.83,7.78-6.3,15.14-10.33,22.06c-9.69,16.58-22.6,30.52-37.63,41.3
				c-3.75-0.12-7.15-1.38-10.02-3.95c-13.49-12.05,4.39-24.85,13.8-31.08c9.41-6.23-8.07-8.29-16.88-20.43
				c-8.81-12.14,11.82-28.58-1.44-29.47c-13.26-0.89-29.39-1.75-32.09-15.95c-2.7-14.2,11.25-11.28,8.81-23.25
				c-2.44-11.97,9.1-14.21,21.44-10.79c12.34,3.41,13.86-5.68,29.16-1.55c15.3,4.13,8.1,22.96,24.97,27.66
				c16.87,4.7,14.76,8.22,14.76,8.22c1.19,0.4,2.25,1.06,3.17,1.97C821.11,367.68,818.58,379.54,814.35,391.18z"/>
			<path class="st3" d="M821.36,327.79c-16.06,1.68-14.98-18.38-28.62-17.19c-13.75,1.2-7.87-8.58-14.68-18.68
				c-6.82-10.1-29.77-4.62-25.1-14.84c4.66-10.21,17.48-2.22,23.49-9.57c6.01-7.34,18.71-0.35,18.71-0.35
				c0.87-0.01,1.76,0.1,2.65,0.33c0,0,0-0.01,0.01,0c6.78,9.62,12.27,20.08,16.34,31.1c2.14,5.79,3.88,11.72,5.2,17.77
				C820.18,320.14,820.85,323.95,821.36,327.79z"/>
			<path class="st3" d="M719.55,249.69c0,0,10.91-7.72,0.65-14.9c-10.26-7.18-11.5-3.11-19.99-7.27c-8.5-4.15-14.46,1.42-10.54,11.3
				c3.91,9.88,4.07,26.17,12.84,20.71C711.29,254.07,712.23,247.86,719.55,249.69z"/>
		</g>
	</g>
	<path class="st4" d="M89.87,789.1h46.97c2.52-2.14-1.74-6.98-6.19-7.31c-1.93-0.15-4.38,0.26-7.17,0.85
		c-0.65-8.59-4.34-47.18-18.25-45.63c-15.64,1.74,0,17,4.42,26.03c3.28,6.69,6.73,16.29,8.31,20.82c-1.27,0.27-2.58,0.54-3.93,0.79
		c-2.07-6.37-9.79-27.78-19.6-26.53c-11.52,1.46-6.89,10.05,1.28,15.14c5.99,3.75,13.34,9.07,16.84,11.65
		c-2.96,0.48-6.05,0.81-9.19,0.74C95.32,785.46,91.4,787.83,89.87,789.1z"/>
	<path class="st4" d="M837.42,789.1h-43.63c-2.34-1.98,1.62-6.49,5.75-6.79c1.8-0.14,4.07,0.24,6.66,0.79
		c0.6-7.97,4.03-43.82,16.95-42.38c14.53,1.61,0,15.79-4.11,24.18c-3.04,6.22-6.25,15.13-7.72,19.34c1.18,0.26,2.4,0.51,3.65,0.74
		c1.93-5.91,9.09-25.8,18.2-24.64c10.7,1.36,6.4,9.33-1.18,14.06c-5.56,3.48-12.39,8.43-15.64,10.82c2.75,0.45,5.62,0.75,8.53,0.68
		C832.36,785.72,836.01,787.92,837.42,789.1z"/>
	<g>
		<path class="st5" d="M868.58,503.11c0,0,1.04-10.33-4.36-9.97c-5.4,0.35-6.83,2.83-6.23,4.82c0.6,1.98,5.86,8.55,5.86,8.55
			L868.58,503.11z"/>
		<path class="st6" d="M952.74,523.81c0,0-5.98,7.03-18.84,15.13c-1.22,0.77-2.49,1.55-3.84,2.32c-4.99,2.91-10.85,5.89-17.61,8.67
			c-0.74,0.31-1.62,0.64-2.6,1c-7.7,2.78-21.88,6.73-30.67,7.08c-0.76,0.03-1.49,0.03-2.16,0c-13.37-0.54-15-52.44-15-52.44
			s1.49-5.19,8.36-3.89c0,0,10.43,29.31,14.17,31.7c3.32,2.12,22.41-26.81,38.84-28.84C934.45,503.19,952.74,523.81,952.74,523.81z"
			/>
		<path class="st7" d="M916.82,776.9c0,0,0.99,11.43-1.43,12.61l-30.91-0.06c0,0,0-3.57,4.96-4.36c4.96-0.79,13.69-3.7,15.16-10.17
			C906.08,768.44,916.82,776.9,916.82,776.9z"/>
		<path class="st8" d="M894.12,638.62c0.15,7.47,0.51,15.18,1.21,22.1c3.34,32.86,4.51,72.57,4.99,80.22
			c0.83,13.29,3.46,34.52,3.46,34.52s5.21,4.94,15.36,2.58c0,0,8.41-30.58,10.29-62.77c0.03-0.53,0.06-1.06,0.08-1.59
			c0.22-4.26,0.45-9.12,0.68-14.37c1.55-35.15,3.23-87.37,3.23-87.37l-38.78-9.11C894.64,602.83,893.74,620,894.12,638.62z"/>
		<path class="st9" d="M894.12,638.62c9.83,16.96,28.56,48.2,36.07,60.69c1.55-35.15,3.23-87.37,3.23-87.37l-38.78-9.11
			C894.64,602.83,893.74,620,894.12,638.62z"/>
		<path class="st10" d="M909.85,550.93c-7.7,2.78-21.88,6.73-30.67,7.08c1.34-0.25,11.13-2.19,14.75-6.56
			c3.89-4.7,10.43-17.45,15.63-12.24C912.01,541.66,911.29,546.5,909.85,550.93z"/>
		<path class="st5" d="M975.02,633.1c0,0,2.41,9.44,2.01,11.54c-0.39,2.1-2.74,9.2-4.21,10.97c-1.47,1.76-1.53-7.66-2.5-9.14
			c-0.97-1.48-0.45,3.52-1.23,3.93c-0.78,0.41-2.08-3.79-2.66-5.27c-0.58-1.49,2.08-6.67,2.33-10.38
			C969.01,631.02,975.02,633.1,975.02,633.1z"/>
		<path class="st7" d="M993.81,763.91c0,0,5.5,5.02,4.43,8.59c-1.07,3.57-6.04,5.94-6.71,10.3c-0.67,4.36-3.35,6.74-5.77,6.74
			c-2.42,0-11.51,0-11.51,0s-1.78-3.07,2.52-3.99c4.29-0.92,5.91-6.05,5.64-10.8c-0.27-4.76,0.4-11.1,0.4-11.1l9.12-2.11
			L993.81,763.91z"/>
		<path class="st8" d="M900.75,612.74c0,0,36.31,77.68,55.63,111.77c19.32,34.08,25.36,43.6,25.36,43.6s11.07-4.36,12.08-7.33
			c0,0-7.39-65.8-20.33-81.84c-7.31-9.06-15.9-36.26-16.3-45.78c-0.4-9.51-8.88-32.22-8.88-32.22L900.75,612.74z"/>
		<path class="st6" d="M893.98,608.69c0,0,11.82,12.72,31.91,16.57c8.82,1.69,26.71,3.32,31.15-2.96c1.04-1.47,1.05-3.66,0.82-7.06
			c-0.6-8.85-2.83-25.97,7.23-60.37c0.94-3.2,1.57-6.27,1.93-9.2c2.2-17.6,1.96-30.89-13.31-37.98
			c-22.88-10.64-32.27-1.88-32.27-1.88s-12.17,5.69-17.73,22.26C892.6,561.2,893.98,608.69,893.98,608.69z"/>
		<path class="st5" d="M939.98,504.76c-3.85,2.74-10.63,4.35-17.09,1.12c-0.5-0.25-0.43-3.67-0.31-7.02
			c0.12-3.29,0.43-6.53,0.43-6.53l8.14-5.34l7.77-5.1C937.99,499.42,941.72,503.52,939.98,504.76z"/>
		<path class="st11" d="M937.56,489.13c0,0-5.28,7.93-14.98,9.73c0.12-3.29,0.48-6.92,0.48-6.92l8.1-4.95L937.56,489.13z"/>
		<path class="st5" d="M915.72,490.27c0,0,19.7,7.35,24.08-4.78c4.38-12.13,9.88-19.36-2.51-24.57
			c-12.39-5.21-16.52-1.45-18.98,2.24C915.84,466.86,910.71,488.05,915.72,490.27z"/>
		<path class="st12" d="M952.07,462.29c0.23-0.18,0.69-0.26,1.65-0.13c0,0-0.66-0.62-1.67-0.85c0.06-1.36-0.18-3.83-2.34-4.85
			c0,0,1.09,0.89,0.97,2.32c-2.1-3.22-7.34-6.3-23.18-8.15c-20.88-2.44-16.7,12.06-14.35,14.16c2.35,2.09,9.9-0.88,14.78,0.49
			c4.88,1.37,4.41,8.72,5.9,10.04c1.49,1.32,1.17-0.55,3.65-1.13s1.95,3.24,0.81,5.56c-1.14,2.32,1.35,6.17,1.35,6.17s0,0,3.83-2.78
			c3.83-2.78,9.66-16.61,8.83-19.96C952.22,462.89,952.15,462.59,952.07,462.29z"/>
		<path class="st10" d="M957.86,615.24c-0.6-8.85-2.83-25.97,7.23-60.37c0.94-3.2,1.57-6.27,1.93-9.2l0,0
			c-7.47-2.46-21.08,3.02-21.08,3.02S942.74,594.16,957.86,615.24z"/>
		<path class="st6" d="M957.84,509.99c0,0,9.19,3.34,15.06,27.68c3.87,16.08,11.01,39.72,11.81,47.15
			c0.8,7.43-8.15,50.92-8.15,50.92s-1.26,0.92-4.36,0.3c-2.96-0.59-4.34-2.6-4.34-2.6s-2.14-28.99-1.59-42.67
			c0.23-5.69-26.32-41.64-40.65-46.27C919.98,542.67,957.84,509.99,957.84,509.99z"/>
		<path class="st3" d="M829.25,478.48c0,0,26.57-0.76,57.23,4.89l3.2-8.07l3.51-8.84c0,0-30.78-13.25-49.29-31.71L829.25,478.48z"/>
		<path class="st13" d="M844.33,434.31l-15.26,45.03l0,0c-2.23-0.66-3.45-3.06-2.67-5.25l13.43-37.84
			C840.48,434.43,842.55,433.53,844.33,434.31L844.33,434.31z"/>
		<path class="st13" d="M858.9,512L858.9,512c2.97,0.59,5.88-1.35,6.47-4.32l5.25-26.28c0.59-2.97-1.35-5.88-4.32-6.47l0,0
			c-2.97-0.59-5.88,1.35-6.47,4.32l-5.25,26.28C853.99,508.49,855.93,511.4,858.9,512z"/>
		<path class="st6" d="M829.25,478.48c0,0,26.57-0.76,57.23,4.89l3.2-8.07C860.87,469.41,829.25,478.48,829.25,478.48z"/>
		<path class="st13" d="M878,481.74l8.3,1.46c-0.13,0,7.71,1.53,10.28-5.42c0.24-0.48,0.39-0.95,0.49-1.5
			c2-8.66-2.76-10.26-2.76-10.26l-10.69-4.16l-3.4,12.01c0,0,0,0,0,0.04L878,481.74z"/>
		<path class="st14" d="M878,481.74l8.3,1.46c-0.13,0,7.71,1.53,10.28-5.42c-4.7-3.42-16.35-3.9-16.35-3.9s0,0,0,0.04L878,481.74z"
			/>
		<path class="st5" d="M859.6,486.55c0,0,4.06,1.62,3.32,3.41c-0.74,1.79-5.91,4.25-6.72,2.84
			C855.38,491.38,857.05,485.04,859.6,486.55z"/>
		<path class="st5" d="M868.66,501.48c0,0,0.77-4.16,0.81-6.06c0.05-1.91,0.27-3.47-0.18-3.52c-0.45-0.05-0.78,0.3-0.96,0.91
			c-0.18,0.61-0.89,4.42-0.89,4.42l0.35,3.67L868.66,501.48z"/>
	</g>
	<g>
		<path class="st6" d="M466.93,498.77l-23.01,273.61c0,0-2.41,16.59,9.93,16.62c20.28,0.05,100.96,0,100.96,0
			s-15.27-3.45-15.08-11.22c0.22-9.16,26.9-281.6,26.9-281.6L466.93,498.77z"/>
		<path class="st15" d="M562.4,784.14c-3.99,0.01-82.1,0.14-101.85-0.11c-8.61-0.11-10.12-7.65-10.19-12.54
			c-0.04-2.34,0.26-4.07,0.26-4.07l0.6-7.11l1.53-18.13l1.35-16.01l1.73-20.58l1.46-17.37l16.35-194.42l99.69-2.59
			c0,0-11.24,114.01-19.18,197.01c-0.89,9.25-1.73,18.11-2.51,26.39c-0.25,2.64-0.5,5.23-0.73,7.74c-0.74,7.85-1.41,15.06-2,21.43
			c-0.31,3.36-0.59,6.47-0.85,9.33c-1.01,11.19-1.61,18.34-1.62,19.7c0,0.79,0.06,1.53,0.19,2.21
			C548.26,783.75,560.9,784.14,562.4,784.14z"/>
		<polygon class="st3" points="224.82,349.88 280.87,575.03 288.55,605.87 314.65,710.73 799.66,710.73 703.44,349.88 		"/>
		<polygon class="st15" points="224.82,349.88 217.05,352.47 304.32,718.57 314.65,710.74 		"/>
		<polygon class="st6" points="304.32,718.57 786.35,718.57 799.66,710.74 314.65,710.74 		"/>
		
			<rect x="473.6" y="784.14" transform="matrix(-1 -1.224647e-16 1.224647e-16 -1 1051.5609 1573.2474)" class="st3" width="104.37" height="4.96"/>
		<polygon class="st16" points="551.43,718.56 550.89,722.36 452.74,742.19 454.09,726.17 454.73,718.56 		"/>
		<path class="st17" d="M562.4,784.14c-3.99,0.01-82.1,0.14-101.85-0.11c-8.61-0.11-10.12-7.65-10.19-12.54l97.69-18.38
			c-1.01,11.19-1.61,18.34-1.62,19.7c0,0.79,0.06,1.53,0.19,2.21C548.26,783.75,560.9,784.14,562.4,784.14z"/>
		<polygon class="st3" points="224.82,349.88 703.44,349.88 781.1,639.89 297.02,639.89 		"/>
		<polygon class="st6" points="758.52,627.33 310.39,627.33 294.37,563.53 288.18,538.85 285.65,528.78 269.19,463.22 
			268.34,459.81 259.64,425.16 255.75,409.65 252.43,396.42 244.64,365.42 686.32,365.42 694.87,396.42 698.51,409.65 
			702.79,425.16 730.95,527.31 730.95,527.31 733.33,535.96 734.44,539.98 753.89,610.51 		"/>
		<polygon class="st18" points="694.87,396.43 252.43,396.43 244.64,365.42 686.32,365.42 		"/>
		<g>
			<path class="st19" d="M262.92,379.43c-0.53-2.14,0.77-3.88,2.91-3.88c2.14,0,4.31,1.74,4.84,3.88c0.53,2.14-0.77,3.88-2.91,3.88
				C265.62,383.31,263.45,381.57,262.92,379.43z"/>
			<path class="st19" d="M275.8,379.43c-0.53-2.14,0.77-3.88,2.91-3.88c2.14,0,4.31,1.74,4.84,3.88c0.53,2.14-0.77,3.88-2.91,3.88
				C278.5,383.31,276.33,381.57,275.8,379.43z"/>
			<path class="st19" d="M289.66,379.43c-0.53-2.14,0.77-3.88,2.91-3.88c2.14,0,4.31,1.74,4.84,3.88c0.53,2.14-0.77,3.88-2.91,3.88
				C292.37,383.31,290.2,381.57,289.66,379.43z"/>
		</g>
	</g>
	<path class="st20" d="M598.46,185.15c18.11-21.27,46.04-63.99,64.85-85.86c3.87-4.5,0.65-11.45-5.28-11.45h-34.22l32.28-72.98
		c1.38-3.12-2.87-5.6-4.91-2.87l-78.04,104.45c-2.28,3.05,0.21,7.34,3.99,6.87l38.74-4.77l-23.05,63.31
		C591.54,185.33,596.06,187.97,598.46,185.15z"/>
	<path class="st3" d="M437.36,314.68c4.08-20.9,6.65-59.72,10.95-81.28c0.89-4.44-3.85-7.85-7.79-5.63l-22.73,12.8l-5.86-60.55
		c-0.25-2.58-4-2.65-4.33-0.07l-12.76,98.57c-0.37,2.88,2.89,4.79,5.22,3.07L424,263.93l8.37,50.67
		C432.83,317.39,436.82,317.45,437.36,314.68z"/>
	<g>
		<path class="st21" d="M778.1,633.5L388.7,666.31c-29.57,2.49-50.96-27.65-38.86-54.74l164.97-369.21
			c12.52-28.01,50.99-31.25,68.01-5.73l224.42,336.4C823.72,597.71,807.66,631.01,778.1,633.5z"/>
		<g>
			<path class="st20" d="M779.34,648.23l-389.39,32.81c-19.15,1.61-37.23-6.78-48.35-22.45c-11.12-15.67-13.09-35.5-5.24-53.05
				l164.97-369.21c8.11-18.14,24.77-29.97,44.57-31.64c19.8-1.67,38.21,7.21,49.23,23.74l224.42,336.4
				c10.67,15.99,12.05,35.87,3.71,53.18C814.91,635.31,798.49,646.61,779.34,648.23z M548.37,234.15
				c-8.91,0.75-16.41,6.07-20.06,14.24L363.34,617.59c-3.53,7.9-2.65,16.82,2.36,23.88c5.01,7.05,13.14,10.83,21.76,10.1
				l389.39-32.81c8.62-0.73,16.01-5.81,19.77-13.6c3.76-7.79,3.13-16.74-1.67-23.94l-224.42-336.4
				C565.57,237.39,557.29,233.39,548.37,234.15z"/>
		</g>
		<g>
			<g>
				<path class="st20" d="M539.25,577.01c-0.42-5.02,0.08-9.73,1.52-14.14c1.43-4.41,3.65-8.31,6.66-11.7
					c3.01-3.39,6.74-6.16,11.19-8.29c4.45-2.13,9.55-3.45,15.32-3.93c5.76-0.49,11.06-0.05,15.88,1.3c4.82,1.36,9,3.46,12.53,6.3
					c3.53,2.84,6.38,6.32,8.53,10.42c2.15,4.11,3.44,8.67,3.86,13.69c0.42,5.02-0.09,9.7-1.53,14.03c-1.44,4.34-3.66,8.2-6.67,11.59
					c-3.01,3.39-6.78,6.16-11.3,8.3c-4.53,2.14-9.67,3.46-15.44,3.94c-5.77,0.49-11.02,0.04-15.76-1.31
					c-4.74-1.36-8.88-3.46-12.42-6.31c-3.53-2.84-6.38-6.27-8.52-10.31C540.95,586.56,539.67,582.03,539.25,577.01z M599.45,506.57
					l-56.09,4.73l-24.09-190.98l71.98-6.06L599.45,506.57z"/>
			</g>
		</g>
	</g>
	<g>
		<path class="st5" d="M297.45,518.28c0,0,1.22-2.75,2.01-4.05c0.79-1.3,4.17-5.11,4.74-4.25c0.58,0.86,2.88,6.67,1.65,8.29
			c-1.22,1.63,0.08,4.45-6,6.17L297.45,518.28z"/>
		<path class="st14" d="M229.92,500.94c0,0,31.11,25.97,43.24,23.56c9.49-1.88,24.48-6.64,24.48-6.64s3.96,3.76,2.84,8.28
			c0,0-19.1,17.98-32.72,18.09c-21.28,0.18-31.31-10.54-31.31-10.54L229.92,500.94z"/>
		<path class="st22" d="M175.36,774.85c0,0,0.9,14.57,3.72,14.78c0.37,0.03,14.3,0.03,14.3,0.03l17.77-0.1c0,0-0.12-4.28-5.31-5.19
			c-5.19-0.91-13.89-4.56-17.03-11.42C185.49,765.72,175.36,774.85,175.36,774.85z"/>
		<path class="st8" d="M174.33,775.86c0,0,5.4,1.81,9.62,1.81c4.7,0,8.98-1.28,8.98-1.28s1.02-9.84,6.61-31.51
			c2.93-11.36,7.12-25.96,13.09-44.11c16.48-50.15,21.5-79.49,21.95-82.27c0.02-0.15,0.03-0.22,0.03-0.22l-0.05-0.02l-50.67-22.25
			c0,0,6.26,69.12-1.73,95.66c-1.12,3.71-2.08,8.03-2.9,12.71C174.22,733.19,174.33,775.86,174.33,775.86z"/>
		<path class="st9" d="M199.55,744.88c2.93-11.36,7.12-25.96,13.09-44.11c16.48-50.15,21.5-79.49,21.95-82.27
			c0-0.08-0.01-0.16-0.02-0.24l-50.67-22.25c0,0,6.26,69.12-1.73,95.66C181.04,695.37,199.55,744.88,199.55,744.88z"/>
		<path class="st23" d="M214.94,774.85c0,0,0.9,14.57,3.72,14.78c0.37,0.03,14.3,0.03,14.3,0.03l17.77-0.1c0,0-0.12-4.28-5.31-5.19
			c-5.19-0.91-13.89-4.56-17.03-11.42C225.07,765.72,214.94,774.85,214.94,774.85z"/>
		<path class="st8" d="M243.67,597.63c0,0,0.66,44.79-7.09,99.79s-5.12,78.34-5.12,78.34s-5.32,1.73-7.47,1.9
			c-5.47,0.45-11.09-1.28-11.09-1.28s-11.09-55.02-7.91-82.54c3.18-27.53-15.19-94.46-15.19-94.46L243.67,597.63z"/>
		<path class="st5" d="M207.73,492.81l9.89,6.49l9.01-2.55c1.65-2.35,2.08-6.88,2.11-10.8c0.02-3.89-0.35-7.19-0.35-7.19
			l-13.35-5.89l-4.98-2.19c0.01,0.08,0.39,4.09,0.44,4.67C211.44,485.75,207.73,492.81,207.73,492.81z"/>
		<path class="st13" d="M243.89,610.09c-12.31,11.89-58.91,9.89-61.78-3.21c-2.87-13.1,3.13-111.49,24.16-117.67
			c4.36-1.28,27.7,6.26,27.7,6.26s3.66,9.58,6.06,21.77c0.47,2.37,1.83,27.52,2.84,51.04c0.47,11,0.88,21.65,1.08,29.45
			C244.15,605.03,244.16,609.83,243.89,610.09z"/>
		<path class="st24" d="M211.5,475.53c2.71,4.58,12.21,8.58,17.24,10.42c0.02-3.89-0.35-7.19-0.35-7.19l-13.35-5.89
			C212.09,472.83,210.3,473.49,211.5,475.53z"/>
		<path class="st5" d="M233.42,477.94c0,0-21.5,6.71-25.47-6.75c-3.97-13.46-9.42-21.65,4.14-26.5c13.56-4.85,17.76-0.51,20.17,3.66
			C234.68,452.52,238.91,475.85,233.42,477.94z"/>
		<path class="st25" d="M231.42,447.06c0,0-1.37,15.66-4.61,14.98c-3.24-0.68-6.8-2.13-6.33,2.59c0.47,4.72-3.15,12.81-7.82,12.79
			c-10.01-0.04-20.89-25.74-18.15-30.61C202.42,432.74,242.85,429.91,231.42,447.06z"/>
		<path class="st14" d="M228.26,489.54c-0.28-0.12-16.01-7.17-17.85-6.57c-1.84,0.61-4.13,6.23-4.13,6.23l27.7,6.26
			C233.97,495.47,231.79,491.03,228.26,489.54z"/>
		<g>
			<path class="st26" d="M326.19,565.75l-88.18,83.02c-1.73,1.63-3.91,2.15-4.84,1.15l-2.98-3.16c-0.94-0.99-0.29-3.14,1.44-4.77
				l88.18-83.02c1.73-1.63,3.91-2.15,4.84-1.15l2.98,3.16C328.56,561.97,327.91,564.12,326.19,565.75z"/>
			<path class="st6" d="M276.7,612.34l-38.69,36.43c-1.73,1.63-3.91,2.15-4.84,1.15l-2.98-3.16c-0.94-0.99-0.29-3.14,1.44-4.77
				l38.69-36.43L276.7,612.34z"/>
			<path class="st26" d="M305.92,534.4c3.39,11.16,9.65,21.6,18.76,30.17c27.8,26.15,71.54,24.82,97.7-2.98
				c25.81-27.44,24.85-70.38-1.9-96.64c-0.35-0.35-0.72-0.7-1.09-1.05c-27.8-26.15-71.53-24.83-97.69,2.97
				C304.11,485.57,298.95,511.48,305.92,534.4z M325.67,470.61c15.22-16.18,36.91-22.63,57.27-19.1
				c11.87,2.05,23.28,7.49,32.71,16.36c25.61,24.09,26.83,64.37,2.74,89.98c-8.87,9.43-19.93,15.54-31.64,18.32
				c-20.12,4.76-42.16-0.35-58.34-15.57C302.81,536.51,301.58,496.22,325.67,470.61z"/>
			<g class="st27">
				<path class="st28" d="M418.4,557.85c-8.87,9.43-19.93,15.55-31.64,18.32c-20.11,4.76-42.16-0.35-58.34-15.58
					c-25.6-24.09-26.83-64.38-2.74-89.98c15.22-16.18,36.91-22.63,57.27-19.1c11.87,2.05,23.28,7.49,32.71,16.36
					C441.26,491.96,442.49,532.25,418.4,557.85z"/>
			</g>
		</g>
		<path class="st14" d="M243.96,597.73c-48.59-34.62-44.55-80.82-44.55-80.82c17.76,10.02,35.38,32.16,43.46,51.37
			C243.35,579.28,243.76,589.93,243.96,597.73z"/>
		<g>
			<path class="st5" d="M291.92,581.96c3.43-0.79,5.73-3.38,6.21-3.83c0,0,1.46,0.1-0.24,3.22c-0.14,0.26-0.46,0.93-0.7,1.4
				c-0.1,0.19,0.04,0.42,0.25,0.44c1.98,0.15,3.96-0.63,7.77,0.16c0.53,0.11,0.68,1.37,0.66,1.9c-0.03,0.91,0.03,1.93-1.02,3.32
				c-0.61,0.81-2.33,1.68-6.14,3.22c-1.45,0.58-5.61,0.14-9.5-1.19l-3.11-1.44l0.96-5.78l0.78,0.16
				C289.08,583.79,290.62,582.28,291.92,581.96z"/>
			<path class="st13" d="M214.49,495.47c0,0-43.66,8.31,12.84,71.53c9.04,10.11,57.86,23.28,57.86,23.28s4.95-4.21,2.46-7.62
				c0,0-33.61-24.41-41.01-28.29c-3.33-1.75-12.91-38.96-18.34-47.92C222.88,497.47,214.49,495.47,214.49,495.47z"/>
		</g>
		<path class="st5" d="M298.63,519.05c0,0,1.43-2.73,1.71-4.17c0.28-1.44,2.08-5.64,2.82-6.38c0.3-0.3,1.27,0.09,1.39,1.36
			c0.05,0.55-0.22,1.56-0.7,2.76c-0.78,1.95-0.65,4.6-0.92,5.49C302.25,520.31,298.63,519.05,298.63,519.05z"/>
	</g>
	<g>
		<g>
			<path class="st5" d="M316.01,410.73c-0.74,0.85-0.84,1.8-0.47,2.82c0,0,0,0.01,0.01,0.01c0.68,1.88,2.92,3.98,5.53,6.07
				c0.33,0.27,0.63,0.51,0.89,0.74c0.07,0.06,0.14,0.12,0.2,0.18c0.05,0.05,0.1,0.09,0.15,0.14c2.43,2.24,1.52,2.76,5.88,7.3
				c4.98,5.18,8.41,5.28,9.38,4.81c0.83-0.4-0.85-3.15-2.71-6.24c-0.09-0.15-0.18-0.3-0.27-0.45c-0.25-0.41-0.49-0.83-0.74-1.24
				c-2.18-3.72-1.62-5.46-1.1-10.99c0.42-4.5,7-25.11,7-25.11l-9.54-1.65c0,0-2.88,16.42-6.05,18.95c-1.69,1.35-3.59,1.36-5.22,2.36
				c-0.12,0.07-0.23,0.14-0.34,0.21C317.69,409.25,316.75,409.88,316.01,410.73z"/>
			<path class="st9" d="M316.01,410.73c-0.74,0.85-0.84,1.8-0.47,2.82c0,0,0,0.01,0.01,0.01c0.83,1.88,3.02,3.96,5.54,6.05
				c0.33,0.27,0.62,0.52,0.88,0.76c0.07,0.06,0.14,0.12,0.2,0.18c0.05,0.05,0.1,0.09,0.15,0.14c2.43,2.24,1.52,2.76,5.88,7.3
				c4.98,5.18,8.41,5.28,9.38,4.81c0.83-0.4-0.85-3.15-2.71-6.24c-0.97-0.36-5.47-2.19-8.88-6.54c-2.89-3.69-4.85-8.39-6.81-11.27
				c-0.22-0.04-0.34-0.06-0.56-0.11C317.69,409.25,316.75,409.88,316.01,410.73z"/>
			<path class="st5" d="M392.97,404.8c0.59,2.95,4.79,2.46,9.48,1.31c4.69-1.14,3.58,0.22,10.25-0.52c6.68-0.74,8.7-3.23,8.9-4.22
				c0.18-0.88-3.12-1.19-6.66-1.6c-0.44-0.05-0.89-0.11-1.34-0.16c-4-0.5-6.92-3.08-10.55-5.2c-3.44-2.01-8.56-10.18-8.56-10.18
				l-9.16,0.72c0,0,4.8,7.3,6.66,10.47c1.09,1.87,1.03,4.33,0.9,6.24C392.82,402.7,392.76,403.76,392.97,404.8z"/>
			<path class="st9" d="M402.44,406.11c4.69-1.14,3.58,0.22,10.25-0.52c6.68-0.74,8.7-3.23,8.9-4.22c0.18-0.88-3.12-1.19-6.66-1.6
				l-0.03,0.07c0,0-4.01,2.84-9.56,2.97c-4.53,0.11-9.33-1.19-12.46-1.14c-0.07,1.04-0.14,2.09,0.07,3.13
				C393.55,407.74,397.75,407.25,402.44,406.11z"/>
			<path class="st9" d="M357.89,346.23l-8.57,23.03l-11.19,30.07c0,0-3.03,0.29-5.94-0.54c-2.67-0.77-5.74-2.8-5.74-2.8
				s3.11-32.29,8.91-50.83c1.48-4.76,3.15-8.61,4.98-10.77C349.33,323.79,357.89,346.23,357.89,346.23z"/>
			<path class="st8" d="M349.2,309.65c-4.87-1.57-17.59-0.03-31.38,2.46c-3.81,0.69-7.65-1.05-9.66-4.36l0,0l-34.7-2.72
				c0,0-11.46,25.39-5.2,41.58c0.92,2.38,2.94,3.86,6.06,3.91c0,0,0,0,0,0c0,0,20.97,0.04,27.68,0.04
				c17.26,0.01,36.53-11.85,39.02-12.35c4.08-0.81,5.71,7.35,9.79,15.91c4.08,8.57,38.34,37.95,38.34,37.95s5.27,0.05,7.44-0.76
				c2.34-0.88,3.2-2.02,3.2-2.02S361.85,313.73,349.2,309.65z"/>
			<path class="st9" d="M304.52,205.83c-2.58-1.54-5.09-1.77-6.63-1.73c-1.07,0.03-2.14-0.04-3.2-0.2
				c-13.24-1.95-21.23,17.29-21.7,23.1c-0.86,10.67-6.51,12.3-14.46,18.98c-15.94,13.4-11.27,28.97-2.56,34.76
				c5.23,3.47,14.44,0,14.44,0c0.13,0.09,25.21-14.01,37.57-20.81C326.51,257.32,311.96,210.27,304.52,205.83z"/>
			<path class="st5" d="M297.63,254.16c0.05,0.04-6.08,2.13-10.18,0.31c-3.86-1.71-6.78-8.06-6.72-8.06
				c1.76-0.08,3.68-1.61,5.17-11.69l0.75,0.27l12.57,4.53c0,0-0.91,4.03-1.5,7.87C297.21,250.61,296.94,253.7,297.63,254.16z"/>
			<path class="st29" d="M299.21,239.52c0,0-0.5,2.18-1.24,6.24c-7.22-1.3-10.32-6.86-11.33-10.77L299.21,239.52z"/>
			<path class="st5" d="M301.08,243.52c0,0-17.2-2.31-15.59-13c1.61-10.69,0.47-18.18,11.52-17.16c11.05,1.03,12.56,5.42,12.89,9.12
				C310.23,226.18,305.59,243.85,301.08,243.52z"/>
			<path class="st9" d="M309.27,216.62c0,0-11.01,9.48-18.5,10.25c-7.49,0.76-10.32-1.64-10.32-1.64s4.41-3.66,7.07-9.58
				c0.78-1.74,2.44-2.94,4.34-3.1C297.21,212.09,307.35,211.88,309.27,216.62z"/>
			<path class="st9" d="M302.39,215.77c0,0,3.68,3.56,4.84,6.2c1.12,2.55,1.45,8.64,0.56,11.07c0,0,5.74-11.15,2.49-16.58
				C306.84,210.72,302.39,215.77,302.39,215.77z"/>
			<path class="st13" d="M312.1,279.49c-0.53,34.81-0.15,27.54-3.96,30.84c-0.92,0.79-3.5,1.27-6.89,1.49
				c-10.67,0.71-29.44-1.06-30.15-3.03c-2.46-6.83-0.72-8.95-2.77-19.4c-0.21-1.11-0.48-2.31-0.79-3.62
				c-1.71-7.18-3.38-9.62,2.7-21.15c5.51-10.44,11.24-18.92,11.76-18.61c14.53,8.63,15.71,1.38,15.71,1.38
				S312.36,262.51,312.1,279.49z"/>
			<path class="st8" d="M349.33,369.26l-11.19,30.07c0,0-3.03,0.29-5.94-0.54c-2.67-0.77-5.74-2.8-5.74-2.8s3.11-32.29,8.91-50.83
				L349.33,369.26z"/>
			<path class="st13" d="M297.7,247.39c0,0,14.96,2.54,16.71,8.98c1.75,6.44,7.52,45.54,7.52,45.54s-4.22,4.12-7.73,0.6
				c-3.51-3.51-11.04-36.58-11.04-36.58L297.7,247.39z"/>
			<path class="st14" d="M301.24,311.82c-10.67,0.71-29.44-1.06-30.15-3.03c-2.46-6.83-0.72-8.95-2.77-19.4l5.15-14.5
				c0,0-0.86,16.14,3.9,20.39c4.75,4.25,19.49,8.2,21.8,11.75C300.3,308.74,301.03,310.45,301.24,311.82z"/>
			<path class="st5" d="M289.02,305.03c0,0,10.53-2.34,12.23-1.41c1.7,0.94,5.85,4.34,6.37,5.52c0.52,1.18-3.78-0.9-5.18-1.28
				c-0.91-0.24-3.29,0.58-4.47,0.98c-4.97,1.65-8.02,0.8-8.02,0.8L289.02,305.03z"/>
			<path class="st13" d="M281.98,246c0,0-14.14,0.87-19.04,7.69c-6.89,9.61-20.58,50.56-12.74,56.02
				c8.82,6.15,40.15,1.62,40.15,1.62s1.04-4.87-0.41-7.23s-25.02-6.17-26.11-7.26c-1.09-1.09,13.61-21.21,13.61-24.47
				C277.45,269.11,281.98,246,281.98,246z"/>
			<path class="st5" d="M301.76,306.55c0,0,2.21,2.85,2.93,3.19c0.72,0.34,1.19,0.26,1.19,0.26l-1.49-2.68L301.76,306.55z"/>
			<path class="st5" d="M301.25,303.62l6.41,3.12c0,0-0.27,0.45-1.06,0.41c-0.79-0.04-2.78-0.77-2.78-0.77L301.25,303.62z"/>
		</g>
		<polygon class="st9" points="356.02,310.96 289.01,310.94 289.01,312.42 355.43,312.44 		"/>
		<polygon class="st9" points="304.68,312.43 355.43,312.44 370.71,274.49 320.04,274.47 		"/>
		<path class="st30" d="M342.63,293.46c0.38-1.33-0.39-2.42-1.72-2.42c-1.33,0-2.73,1.08-3.11,2.42c-0.38,1.33,0.39,2.42,1.72,2.42
			C340.85,295.87,342.24,294.79,342.63,293.46z"/>
	</g>
	<g>
		<path class="st25" d="M686.05,455.57c-6.84-2.27-11.57,0.6-11.57,0.6c-19.68,0.81-20.41,20.98-18.1,28.49
			c3.24,10.54-8.24,18.86,4.5,23.13c14.78,4.95,27.17-0.92,26.33,1.63C733.94,513.1,701.6,460.74,686.05,455.57z"/>
		<path class="st13" d="M665.64,553.7c0,0-1.87,3.7-5.26,7.96c-4.09,5.12-25.55-7.03-23.7-7.96c1.85-0.92,12.63-31.99,15.2-35.9
			c2.57-3.9,11.32-5.93,11.32-5.93L665.64,553.7z"/>
		<path class="st31" d="M738.06,763.23c0,0,5.92,5.41,4.77,9.25c-1.16,3.84-6.5,6.4-7.22,11.1c-0.72,4.69-3.61,7.25-6.21,7.25
			c-2.6,0-12.4,0-12.4,0s-1.91-3.3,2.71-4.3c4.62-1,6.37-6.51,6.08-11.63c-0.29-5.12,0.43-11.95,0.43-11.95l9.82-2.28L738.06,763.23
			z"/>
		<path class="st7" d="M687.93,765.53c0,0,2.13,22.9-0.47,24.18l-33.28-0.07c0,0,0-3.84,5.34-4.69c5.35-0.85,14.74-3.98,16.32-10.95
			C677.44,767.02,687.93,765.53,687.93,765.53z"/>
		<path class="st13" d="M713.53,538.25c0,0,0.5,6.99,0,15.38c-0.33,5.56-5.96,13.01-6.75,14.85c-2,4.62-4.26,5.37-4.26,5.37
			l-17.47,4.28l-6.14,1.5l-19.37-5.79c0,0-8.82-24.63-5.28-38.5c3.54-13.87,8.96-23.49,8.96-23.49s13.17-2.96,36.39-1.31
			L713.53,538.25z"/>
		<path class="st14" d="M715.19,553.83c-0.33,5.56-7.62,12.82-8.42,14.66c-2,4.62-4.26,5.37-4.26,5.37l-17.47,4.28l-3.16-9.04
			c0,0,25.53-6.71,21.42-30.34L715.19,553.83z"/>
		<path class="st9" d="M660.75,577.6c0,0-9.59,29.86-10.21,40.03c-0.62,10.17,18.34,144.44,19.1,149.13c0.72,4.42,6.2,7.23,6.2,7.23
			s2.52,1.49,6.12,0.47c4.99-1.41,6.57-3.1,6.57-3.1s7.47-95.76,2.85-129.97c-4.62-34.21-4.68-63.79-4.68-63.79H660.75z"/>
		<path class="st8" d="M701.4,576.71c0,0,14.64,19.64,16,32.91c1.36,13.27,2.14,59.9,5.05,72.84c2.91,12.94,13.59,37.84,13.59,78.21
			c0,0-1.11,2.31-4.54,3.55c-1.1,0.39-2.57,0.78-3.99,1.1c-2.83,0.65-5.73-0.73-7.02-3.33c-7.22-14.54-30.22-61.43-31.4-71.16
			c-0.83-6.89-8.1-52.47-23.94-79.22c-3.8-6.42,2.33-31.96,2.33-31.96L701.4,576.71z"/>
		<path class="st9" d="M659.22,572.99c0,0,3.85,3.05,11.5,3.2c9.14,0.18,31.79-2.33,31.79-2.33s1.01,2.81,0.97,5.78
			c0,0-27.66,6.98-43.69,1.02C659.79,580.66,657.72,576.77,659.22,572.99z"/>
		<g>
			<path class="st30" d="M668.53,584.07c-2.3,0-4.17-2.12-4.17-4.72c0-2.6,1.87-4.72,4.17-4.72c2.3,0,4.17,2.12,4.17,4.72
				C672.7,581.95,670.83,584.07,668.53,584.07z M668.53,576.01c-1.54,0-2.79,1.5-2.79,3.34s1.25,3.34,2.79,3.34
				c1.54,0,2.79-1.5,2.79-3.34S670.07,576.01,668.53,576.01z"/>
		</g>
		<polygon class="st32" points="688.51,592.65 646.94,593.04 626.48,544.97 668.06,544.58 		"/>
		<path class="st5" d="M683.08,570.93l-3.05-3.74c0,0-2.06-1.84-3.56-2.15c-1.5-0.31-4.66-2.14-4.96-1.62
			c-0.31,0.51,2.43,4.18,2.43,4.18l0.14,0.02c-3.14,2.36-11.06,0.28-12.04,1.24c-1.19,1.17,1.63,3.69,3.14,5.11
			c1.51,1.42,5.83,3.78,9.2,2.73c2.46-0.77,6.34-1.55,6.34-1.55L683.08,570.93z"/>
		<path class="st5" d="M629.61,553.42c0,0,2.61-2.97,4.28-1.54c1.66,1.42-0.44,8.43-2.02,7.72
			C630.28,558.89,628.7,554.29,629.61,553.42z"/>
		<path class="st13" d="M699.59,510.56c0,0,11.9,1.31,20.44,16.83c6.73,12.24,18.25,34.8,13.9,41.17
			c-1.91,2.8-20.19,12.75-55.45,7.06c0,0,0.55-4.45,3.4-6.52c0,0,29.68-9.53,29.63-11.42c-0.1-3.59-4.01-6.68-20.59-23.26
			C686.42,529.91,699.59,510.56,699.59,510.56z"/>
		<path class="st5" d="M690.43,511.19c0.41-0.55-0.12-2.3-0.77-5.55c-0.59-2.95-1.6-7.51-1.57-12.64l-0.88,0.15l-14.75,2.48
			c0,0,0.34,3.94,0.35,7.66c0,0.03,0,0.06,0,0.09c0.02,3.23-0.87,8.1,0.22,8.74C678.61,515.39,688.86,513.3,690.43,511.19z"/>
		<path class="st33" d="M672.46,495.62c0,0,0.29,5.56,0.3,9.28c8.25-0.2,12.66-8.21,14.45-11.76L672.46,495.62z"/>
		<path class="st5" d="M671.57,502.25c0,0,19.34-2.75,17.44-14.77c-1.9-12.02-0.68-20.46-13.11-19.21
			c-12.43,1.25-14.09,6.21-14.43,10.38C661.12,482.82,666.49,502.66,671.57,502.25z"/>
		<path class="st25" d="M667.06,469.38c0,0,7.53,13.25,15.96,14.05c8.44,0.79,11.6-1.94,11.6-1.94s-7-3.95-9.67-12.36
			C684.96,469.12,669.98,462.04,667.06,469.38z"/>
		<path class="st25" d="M668.55,470.31c0,0-3.68,2.09-4.84,5.2c-1.13,3.04-1.88,6.96-0.85,11.44c0,0-5.5-8.95-1.9-15.08
			C664.79,465.38,668.55,470.31,668.55,470.31z"/>
	</g>
	<path class="st9" d="M1094.57,792.56H22.71c-0.74,0-1.34-0.6-1.34-1.34v-0.78c0-0.74,0.6-1.34,1.34-1.34h1071.86
		c0.74,0,1.34,0.6,1.34,1.34v0.78C1095.91,791.95,1095.31,792.56,1094.57,792.56z"/>
</g>
</svg>
